/* XPM */
static char *_e2ff0d1f6324c1aa2766d26d4e44df7[] = {
/* columns rows colors chars-per-pixel */
"32 32 2 1 ",
"  c #86C06C",
". c #306850",
/* pixels */
"              ..                ",
"              ..                ",
"              ..                ",
"              ..                ",
"              ..                ",
"              ..                ",
"................................",
"................................",
"      ..              ..        ",
"      ..              ..        ",
"      ..              ..        ",
"      ..              ..        ",
"      ..              ..        ",
"      ..              ..        ",
"................................",
"................................",
"              ..            ..  ",
"              ..            ..  ",
"              ..            ..  ",
"              ..            ..  ",
"              ..            ..  ",
"              ..            ..  ",
"................................",
"................................",
"      ..              ..        ",
"      ..              ..        ",
"      ..              ..        ",
"      ..              ..        ",
"      ..              ..        ",
"      ..              ..        ",
"................................",
"................................"
};
