/* XPM */
static char *_63add2db2014b0af4a708be35e9635b7G6PwGIVaIfZyYI2[] = {
/* columns rows colors chars-per-pixel */
"32 32 228 2 ",
"   c #330000",
".  c #3B1100",
"X  c #450D00",
"o  c #4A0D00",
"O  c #530C00",
"+  c #4D1700",
"@  c #4D1806",
"#  c #521300",
"$  c #551C03",
"%  c #5A1C04",
"&  c #561D0B",
"*  c #4E2405",
"=  c #552203",
"-  c #5B2303",
";  c #55210B",
":  c #5B2C0B",
">  c #542413",
",  c #5C2E1C",
"<  c #5D2913",
"1  c #5A3316",
"2  c #612505",
"3  c #6A2500",
"4  c #662C0B",
"5  c #6B2A0B",
"6  c #672800",
"7  c #6C330D",
"8  c #67310D",
"9  c #76380C",
"0  c #642C12",
"q  c #6C2E13",
"w  c #632E1B",
"e  c #642511",
"r  c #663214",
"t  c #6A3312",
"y  c #64321D",
"u  c #6A341A",
"i  c #6F3A1D",
"p  c #743313",
"a  c #7D3B12",
"s  c #72361B",
"d  c #7B3B1A",
"f  c #753B1C",
"g  c #702609",
"h  c #6C3623",
"j  c #6D3A23",
"k  c #6F3F2A",
"l  c #743B23",
"z  c #753E2B",
"x  c #7C3F23",
"c  c #773E33",
"v  c #7A421D",
"b  c #7B4323",
"n  c #7C4925",
"m  c #74422C",
"M  c #7C442B",
"N  c #794525",
"B  c #744333",
"V  c #7B4633",
"C  c #7E5340",
"Z  c #853E1D",
"A  c #874518",
"S  c #944E1E",
"D  c #824424",
"F  c #8B4524",
"G  c #844A25",
"H  c #8C4B23",
"J  c #82462A",
"K  c #894729",
"L  c #844B2C",
"P  c #8C4A2A",
"I  c #914C25",
"U  c #914929",
"Y  c #8D512A",
"T  c #8E5027",
"R  c #94532D",
"E  c #9D5A2C",
"W  c #9B562D",
"Q  c #824B34",
"!  c #8B4C32",
"~  c #834E3B",
"^  c #944E34",
"/  c #8C5334",
"(  c #8C533C",
")  c #895738",
"_  c #945333",
"`  c #9B5436",
"'  c #925A35",
"]  c #9D5B34",
"[  c #93543B",
"{  c #955A3C",
"}  c #9B5C3B",
"|  c #9A573C",
" . c #A75F2D",
".. c #A45C3B",
"X. c #A45B35",
"o. c #9D633E",
"O. c #9A6136",
"+. c #A26137",
"@. c #A4633D",
"#. c #AC623D",
"$. c #AC6C3D",
"%. c #AA6433",
"&. c #B56E3E",
"*. c #8C5543",
"=. c #8C5943",
"-. c #8A5A45",
";. c #945D45",
":. c #9C5C43",
">. c #945B49",
",. c #9C5E49",
"<. c #A45F45",
"1. c #8F634A",
"2. c #966143",
"3. c #9D6243",
"4. c #9E6845",
"5. c #9D644B",
"6. c #9D694E",
"7. c #96644D",
"8. c #9C6552",
"9. c #9C6A52",
"0. c #956854",
"q. c #A46444",
"w. c #AA6543",
"e. c #A46945",
"r. c #AC6C43",
"t. c #A3644A",
"y. c #AA664B",
"u. c #A46A4C",
"i. c #AC6D4C",
"p. c #B36D4B",
"a. c #B36C45",
"s. c #AC724C",
"d. c #AD7041",
"f. c #B4734C",
"g. c #BB754D",
"h. c #B67A4D",
"j. c #BC7B4D",
"k. c #B87545",
"l. c #A26752",
"z. c #A46A53",
"x. c #AA6D52",
"c. c #A16D5A",
"v. c #AD6F58",
"b. c #AC7254",
"n. c #AE7955",
"m. c #AC725B",
"M. c #AC795D",
"N. c #A57159",
"B. c #B27353",
"V. c #BA7553",
"C. c #BD7C55",
"Z. c #B2755B",
"A. c #B47B5D",
"S. c #BB7C5B",
"D. c #B47957",
"F. c #AE7861",
"G. c #A97967",
"H. c #BB7E64",
"J. c #B67D67",
"K. c #C17C54",
"L. c #C07B5C",
"P. c #C57B4C",
"I. c #BE8255",
"U. c #BC825D",
"Y. c #B58266",
"T. c #BC8265",
"R. c #B38168",
"E. c #BB836B",
"W. c #BD8A6B",
"Q. c #B98974",
"!. c #BA9078",
"~. c #C48354",
"^. c #CA8455",
"/. c #C4825B",
"(. c #CD8B5D",
"). c #C9875D",
"_. c #D1895A",
"`. c #D4905E",
"'. c #C38564",
"]. c #CB8664",
"[. c #C58A64",
"{. c #CB8B65",
"}. c #C2846B",
"|. c #C58C6C",
" X c #CB8E6C",
".X c #C8846A",
"XX c #D48D64",
"oX c #D28C6D",
"OX c #CD936A",
"+X c #D59265",
"@X c #D4936B",
"#X c #DA956A",
"$X c #DB9B6C",
"%X c #D7996A",
"&X c #C38D75",
"*X c #C98E73",
"=X c #C38A77",
"-X c #C99678",
";X c #DA9C72",
":X c #DB9D7B",
">X c #D69678",
",X c #E49D6C",
"<X c #E29867",
"1X c #E49E71",
"2X c #DDA274",
"3X c #DDA27E",
"4X c #E1A276",
"5X c #E4A57D",
"6X c #EDAD7C",
"7X c #EAA576",
"8X c #F4B27F",
"9X c #F1A979",
"0X c #CC9883",
"qX c #D49E84",
"wX c #D89E88",
"eX c #DBA383",
"rX c #D7A38B",
"tX c #DAAB8A",
"yX c #D2A68C",
"uX c #E7A989",
"iX c #E3B08B",
"pX c #F4B286",
"aX c #EDAD92",
"sX c #F9BA97",
"dX c #FBC39C",
"fX c #FFCAA5",
"gX c #FFCDAC",
"hX c #F1C2A6",
/* pixels */
"L u.4.] d.~.r.f.@X%X%Xh.A $.T r.i.p.C.p p 4 b.i.b.S.s.@.[.{.~.~.",
"9.A.o.O.I.C.+Xh.C.4X;X6X8X6X4Xf.S. X.X XA.{ { b.T.{ S.3X:XA h.9 ",
"-.y t o.r.$.r.X.W +X`.,X,X,X<X+XD.2.-Xi Q u F.l i 2.3.d aXsXuX] ",
", y W.n.e.OX/.{.5X@Xj.+XpX7X_.K.t.M.;.&XN.M =.9.h 5.b.! >X XS.w.",
"B 0.~ M.4.U.2.H.A.{ fX4.'.i.H.u.H.,.z.*XwXm.=X8.l.F.b.W.uXu.U.[.",
"& ; M L / o 2 X - 0 - - $ i X $ e # o o # & l 0 & % $ - t 4 2 - ",
"t.u././.k.#XI ].f.} s.s.OX3X:Xx.T.Z.3.Z.}.x.}.}.q Z.>XB.y.B.L./.",
"y._ W j.%.9XXX).X./.$.@X;X;XV.y.T.J b.} u.! ! Z.[ e.D w.f.O XXg.",
"M b G H ~.&.(.3 a I E S a.(.O w.B.} / D L / 3.L :.B.% {.L.3 g.f.",
"M T.s.I.(.$.1X+X7X(.#X`.k.1X#X` .Xt.{ H.A.m.b.t. X'.q.S.$ S.r.C.",
"u.|.O.I.~.j.^.+X#X$.$X`.,X#X).S.v.H.t.l J.J.u.s u 6.i -X>XL W.n.",
"|.T. X2X2X$X+X/.%X%X2X).OXU.D x.m.l.o 5.5.;.u m.0 T./ >X>XL A.b.",
"m 2.' |.2X2X5XiXdXeXiXiXtXhXrXQ.9.6.6.Y.z.M E.Z.b b.x.i.B.'.B.[.",
"+ r v - - 9 7 # + t - t n : ; j & $ 0 - - t 0 3.s 5 5 _ F F p H ",
";.l o.f.$.A pX^.K.+XE ~.~.k.K.` oX Xi..XL.w.p.w.F C.I ..#.A g./.",
"J b H 4X7X8X^.^.P.S &. ._._.,XA w.f.d ` w.] a.].V.@X].K.+.r.+.r.",
"' e.f.2X2X6X~.g.,XXXg.XX{./.6 R T w.@...@.d >X/.oXV.P :XP o.|.{ ",
"s.U.R T a ~.5XpX@.# i.D Y 7  X' r.V.@X{.e.B.D.{.q.[._ P i.$ n A.",
"p D _ d e.'.[.s.b.2 *Xx s J x.q F V.w.:XB.q.T.T.|.'.sXo. Xd '.uX",
"! H.x.x.*Xn.gXtXqX-X0XJ.&Xm.E.v..X.X<.b.;.&X2.M.A.T.A.b./ wXx.! ",
">.J.=XqXW.-XtXyX0.!.Q.G.G.0Xc.Q >.*.h c.-.B G.c.N.c.;.;.7.k -.G.",
"$ < & = = * * : 1 * . > y B X y w k B > > w @ h w z w + ; G., C ",
"t.[ :.4.b.s./ n N { i N.rXl 5.6.=.9.y 8.Q z ( l.t.M z.5.z.6.R.1.",
"L q u.3.  e.G 4.! b./ 5.Q E.W.Y.Y.+ Q 0XwXF.*.( o ! H.A.5.M ( m ",
"z 8.m ( [ ;.Z.Z.[ l z z z 0X, w ~ h y h z y 0.*.z Q ; Q u j < < ",
"~ V ;.( x.$ ^ t.:.,.[ 5.*.7.w < M l.m.qXrXj 0.7.M.N.|.qX5.( ;.E.",
"l 5.s B.P p.F ....U g Z K } G >Xq.e.{ S.*X5.u.uX3._ e.} f.'.'.eX",
"f f b _ R X.#.X.X.a.p.Z a r.@XC.;XB._ e.G K q.q.} ..p.P } U.S.B.",
"r u n n [.s.{.fXg.R I a.] +.j.h.G 8 |.i.B.:.y.<.^ U ` P _ ( = : ",
"V -XM.2.4.[.Y v r. X@XC.pXdXpXr.:XgXeX>XaXS.y.>X` L.oXe.H.eX5.Y.",
"@ h V + 2.v f 8 '.'.@.i.f.r.g.@.w.` 5 K _ 5 t.d P F w._ :.B.{ b.",
"c *.*.;.M / M t / D G R a.p.#.#X;X]..._ | t.[ } K i.].w.y.[ P D "
};
