/* XPM */
static char *e47869360d0f41a382defbdb029afb11UGKs0Khj0xTpDxgO[] = {
/* columns rows colors chars-per-pixel */
"32 32 173 2 ",
"   c #0B281D",
".  c #1C2B1B",
"X  c #262A1C",
"o  c #3E301E",
"O  c #0B2C20",
"+  c #0D3326",
"@  c #0F3A2C",
"#  c #14382B",
"$  c #322E21",
"%  c #2D3122",
"&  c #313626",
"*  c #353929",
"=  c #393D2D",
"-  c #383626",
";  c #492E1A",
":  c #422F1D",
">  c #4D321D",
",  c #51341F",
"<  c #4B3622",
"1  c #443B29",
"2  c #4D3F2A",
"3  c #553923",
"4  c #5A3C25",
"5  c #543E29",
"6  c #5D3022",
"7  c #124939",
"8  c #1C503E",
"9  c #3D412F",
"0  c #244032",
"q  c #3F4433",
"w  c #5C452E",
"e  c #515A21",
"r  c #414533",
"t  c #454937",
"y  c #494C3A",
"u  c #4F523F",
"i  c #5B543F",
"p  c #5A4838",
"a  c #694A2F",
"s  c #604329",
"d  c #664C34",
"f  c #694F37",
"g  c #6C523D",
"h  c #6B533B",
"j  c #745337",
"k  c #795739",
"l  c #795739",
"z  c #165443",
"x  c #185C4A",
"c  c #265544",
"v  c #1A6552",
"b  c #1D6D58",
"n  c #1E725D",
"m  c #206F5B",
"M  c #217F69",
"N  c #5A5D4A",
"B  c #545746",
"V  c #6D5B4B",
"C  c #675D48",
"Z  c #5B6558",
"A  c #66614E",
"S  c #75614E",
"D  c #626552",
"F  c #666956",
"G  c #6A6C5A",
"H  c #7E6D5B",
"J  c #6E715E",
"K  c #786E64",
"L  c #60776E",
"P  c #737564",
"I  c #7A7C6B",
"U  c #787568",
"Y  c #647C73",
"T  c #7D7F77",
"R  c #952511",
"E  c #917C16",
"W  c #835F3F",
"Q  c #B34B31",
"!  c #BF5230",
"~  c #C95023",
"^  c #D25E31",
"/  c #D65B26",
"(  c #CF663F",
")  c #C1623C",
"_  c #D7693B",
"`  c #A15B51",
"'  c #8A6543",
"]  c #916A47",
"[  c #956D4A",
"{  c #9B724E",
"}  c #8B6F56",
"|  c #A37852",
" . c #887967",
".. c #867C73",
"X. c #DB7A4E",
"o. c #C3674B",
"O. c #7D806F",
"+. c #73887F",
"@. c #688379",
"#. c #BEA50B",
"$. c #B19D3D",
"%. c #C0A710",
"&. c #A5944B",
"*. c #818474",
"=. c #84867E",
"-. c #878A79",
";. c #8A8D7D",
":. c #8A8475",
">. c #928273",
",. c #9B8C7C",
"<. c #918478",
"1. c #CE876E",
"2. c #DC8B6A",
"3. c #D59178",
"4. c #C0AF61",
"5. c #C8B96F",
"6. c #7C9089",
"7. c #8E9086",
"8. c #95968A",
"9. c #95988B",
"0. c #999C8F",
"q. c #999587",
"w. c #9A9C91",
"e. c #8A9A94",
"r. c #A09387",
"t. c #A79C91",
"y. c #9EA095",
"u. c #98A29C",
"i. c #A3A59B",
"p. c #A8A89E",
"a. c #B6A798",
"s. c #AAACA4",
"d. c #ADAFA9",
"f. c #A7A9A0",
"g. c #AEB1A9",
"h. c #B2B3AD",
"j. c #BFB6AE",
"k. c #B5B7B0",
"l. c #BBBBB5",
"z. c #BDBEB8",
"x. c #B6B8B2",
"c. c #E7AD96",
"v. c #D7B9B0",
"b. c #D1AEA7",
"n. c #E0B1A1",
"m. c #E0BFB4",
"M. c #BEC0BB",
"N. c #D4C789",
"B. c #C2C2BD",
"V. c #CEC9B8",
"C. c #D8C3BC",
"Z. c #D8D0B3",
"A. c #BAC7C3",
"S. c #C6C8C4",
"D. c #CCCDCA",
"F. c #C6C9C5",
"G. c #D6CBC5",
"H. c #CFD1CE",
"J. c #D2D1CE",
"K. c #D4D5D2",
"L. c #D7D8D6",
"P. c #DCD9D5",
"I. c #DCDDDB",
"U. c #E3CBC5",
"Y. c #E0DBD6",
"T. c #E1E0DF",
"R. c #E3E3E2",
"E. c #EDEDED",
"W. c #E8E4E2",
"Q. c #F1EAE8",
"!. c #EFF0EF",
"~. c #F3F3F3",
"^. c #FAFAFA",
/* pixels */
"^.E.^.E.^.E.^.E.^.E.^.~.~.^.!.^.E.^.E.^.E.^.E.^.E.^.~.~.^.E.^.E.",
"E.^.E.^.E.^.E.^.E.^.~.^.~.~.^.E.^.E.^.E.^.E.^.E.^.~.~.~.~.^.E.^.",
"^.~.^.E.^.E.^.E.I.R.^.~.~.~.~.^.E.^.E.^.E.^.E.^.E.^.~.~.~.~.^.E.",
"~.^.~.^.E.^.u.c @ @ @.!.~.~.~.~.^.E.^.E.^.E.^.~.^.~.~.~.~.~.~.^.",
"^.~.^.~.^.A.b v # O   Y ~.~.~.~.~.^.~.^.E.^.~.^.~.~.~.~.~.~.^.~.",
"~.~.~.~.~.+.8 x b b 7 O M.~.~.~.~.~.~.~.~.~.~.~.~.~.~.~.~.~.~.^.",
"~.~.~.~.~.4.e 8 n M x + 6.~.~.~.~.~.~.~.~.~.~.~.~.~.~.~.~.~.~.~.",
"~.~.~.~.N.#.E .   + z + L ~.~.~.~.~.~.^.E.^.~.~.~.~.~.~.~.~.^.~.",
"~.^.E.5.%.$.V.S.0 + v @ e.~.^.~.^.~.^.~.^.!.^.~.~.~.~.~.~.~.~.^.",
"^.~.D.&.Z.E.G.,.9.Z c + F.^.~.^.~.^.E.^.E.^.E.^.~.~.~.~.~.~.^.E.",
"~.^.E.^.I. .] [ a S <.U Y.~.^.!.^.E.^.E.^.E.^.E.^.~.~.~.~.^.E.^.",
"^.E.^.R.g ' | j > > w H :.:. . .0.P.E.^.E.^.E.^.~.^.~.~.~.E.^.E.",
"E.^.E.>.l [ k 3 5 ,.z.K.K.K.H.l.8.A V ,.P.E.^.E.^.~.~.~.~.^.E.^.",
"^.E.^.d ] W 4 3 p.L.K.D.B.M.F.D.S.h.;.i f } a.^.E.^.~.~.^.!.^.E.",
"E.^.H.w { ' 3 S l.L.I.H.z.s.y.i.f.h.x.s.I i d } P.E.~.~.~.^.E.^.",
"^.E.J.3 ] l , >.D.I.T.I.L.S.p.;.O.;.s.z.k.w.P h f j.~.~.^.~.^.E.",
"E.^.E.p a l ; f M.D.K.I.I.K.S.i.*.G *.i.h.l.g.;.C w r.~.~.^.E.^.",
"^.~.^.v.: j 4 ; f q.z.S.B.B.M.g.0.P N F ;.s.h.s.8.F 1 U l.t.B.~.",
"~.^.!.^.i.5 4 ; ; 4 l q.h.k.g.i.i.9.J y t N P *.I F t X - h.E.^.",
"~.~.^.~.^.w.o < ; > C w.y.y.9.9.0.w.w.P y & & q q = * & $ ..K.~.",
"~.~.~.~.~.^.h.1 < 2 G *.-.-.-.7.;.-.;.*.J u = & X X q d.E.~.~.~.",
"~.~.~.~.~.~.~.I.K - y B N D F G G F D D D B t * % Z R.~.~.~.~.~.",
"~.~.~.~.^.!.^.~.^.J.7.r & 9 r r t t t r r r = B d.!.~.~.~.~.~.~.",
"~.^.E.^.E.^.!.^.~.^.~.E.D...V K 6 T =.=.y.s.L.E.~.~.~.~.~.~.~.^.",
"^.E.^.E.^.E.^.E.^.~.^.~.~.` b.v.o.^.E.^.E.^.E.^.~.^.~.~.~.~.^.E.",
"~.^.E.^.E.^.E.^.~.^.~.~.~.R U.2.c.E.^.E.^.E.^.~.^.~.^.~.~.^.E.^.",
"^.E.^.E.^.E.^.E.C.( ^ _ _ Q v./ m.^.E.^.E.^.E.^.E.^.~.~.~.~.^.E.",
"E.^.E.^.E.^.E.^.R.U.3.) ~ X.X.! G.E.^.E.^.E.^.E.^.~.~.~.~.^.E.^.",
"^.E.^.E.^.E.^.E.^.E.Q.1.3.n.C.!.E.^.E.^.E.^.E.^.E.^.~.~.^.E.^.E.",
"E.^.E.^.E.^.E.^.E.^.!.^.~.E.^.E.^.E.^.E.^.E.^.E.^.E.~.~.E.^.E.^.",
"^.E.^.E.^.E.^.E.^.E.^.~.~.^.E.^.E.^.E.^.E.^.E.^.E.^.~.~.^.E.^.E.",
"E.^.E.^.E.^.E.^.E.^.~.^.~.~.^.E.^.E.^.E.^.E.^.E.^.~.~.~.~.^.E.^."
};
