/* XPM */
static char *_58be3640da348eeeedc57f6dfb2b77d2k4aP9oBuqVCc6Ph[] = {
/* columns rows colors chars-per-pixel */
"64 64 208 2 ",
"   c #000303",
".  c #000800",
"X  c #00030C",
"o  c #090F0B",
"O  c #000213",
"+  c #020C14",
"@  c #00021D",
"#  c #00081B",
"$  c #0A0E19",
"%  c #0D1917",
"&  c #0B151F",
"*  c #1D271F",
"=  c #1F2A1C",
"-  c #222B18",
";  c #010223",
":  c #080425",
">  c #070F26",
",  c #0C0924",
"<  c #01022C",
"1  c #09072C",
"2  c #050B2C",
"3  c #090E2B",
"4  c #110D2A",
"5  c #0C1620",
"6  c #0B142C",
"7  c #101721",
"8  c #13132C",
"9  c #18162E",
"0  c #131E2B",
"q  c #1C192C",
"w  c #010234",
"e  c #090332",
"r  c #060B34",
"t  c #0A0C34",
"y  c #01023C",
"u  c #08033D",
"i  c #050B3C",
"p  c #0A0C3B",
"a  c #120C33",
"s  c #110C3C",
"d  c #0C1234",
"f  c #05123B",
"g  c #0C133A",
"h  c #111731",
"j  c #181432",
"k  c #141B34",
"l  c #191C35",
"z  c #11153D",
"x  c #1C153C",
"c  c #161E3C",
"v  c #191B3B",
"b  c #201C2D",
"n  c #1D212D",
"m  c #1B2325",
"M  c #1A2134",
"N  c #17213D",
"B  c #1A203A",
"V  c #1F2839",
"C  c #23282C",
"Z  c #232332",
"A  c #282634",
"S  c #212338",
"D  c #010144",
"F  c #090343",
"G  c #050A42",
"H  c #0B0B43",
"J  c #01014C",
"K  c #05094A",
"L  c #0A0C4B",
"P  c #140D41",
"I  c #110D4C",
"U  c #0D1244",
"Y  c #0C114B",
"T  c #0F1B4B",
"R  c #131645",
"E  c #181545",
"W  c #151C43",
"Q  c #191E44",
"!  c #13144B",
"~  c #151B4A",
"^  c #191C4C",
"/  c #010154",
"(  c #080254",
")  c #050C51",
"_  c #0B0B54",
"`  c #01015C",
"'  c #0A065B",
"]  c #050A5B",
"[  c #0B0C5C",
"{  c #100A50",
"}  c #120E5C",
"|  c #0C1253",
" . c #0D125C",
".. c #121456",
"X. c #141B56",
"o. c #13135B",
"O. c #151D5D",
"+. c #18195A",
"@. c #1D1A53",
"#. c #221D46",
"$. c #172041",
"%. c #1A2243",
"&. c #16224B",
"*. c #1C254B",
"=. c #152056",
"-. c #21274B",
";. c #252E4F",
":. c #25245A",
">. c #010164",
",. c #090464",
"<. c #050864",
"1. c #0B0B64",
"2. c #02016C",
"3. c #09036C",
"4. c #05096B",
"5. c #0D096C",
"6. c #120D63",
"7. c #120B6C",
"8. c #180F6A",
"9. c #0E1364",
"0. c #0B1169",
"q. c #101164",
"w. c #141962",
"e. c #12106A",
"r. c #1E166E",
"t. c #1E196D",
"y. c #020173",
"u. c #090375",
"i. c #040875",
"p. c #0C0B76",
"a. c #02017B",
"s. c #0A037B",
"d. c #07087D",
"f. c #0B0B7D",
"g. c #110B72",
"h. c #100878",
"j. c #1A1071",
"k. c #231E60",
"l. c #322E6B",
"z. c #020183",
"x. c #090284",
"c. c #040981",
"v. c #0A0A83",
"b. c #020189",
"n. c #000388",
"m. c #01008B",
"M. c #010189",
"N. c #040289",
"B. c #050289",
"V. c #04048A",
"C. c #00008C",
"Z. c #00008F",
"A. c #02028E",
"S. c #05018E",
"D. c #06048D",
"F. c #01018B",
"G. c #09028B",
"H. c #0C0D8B",
"J. c #08088B",
"K. c #000090",
"L. c #020091",
"P. c #020193",
"I. c #040092",
"U. c #040291",
"Y. c #020095",
"T. c #050294",
"R. c #020193",
"E. c #0A0393",
"W. c #090894",
"Q. c #030098",
"!. c #050599",
"~. c #00029D",
"^. c #06029E",
"/. c #03049C",
"(. c #02019B",
"). c #0A0099",
"_. c #06099A",
"`. c #0C0A9D",
"'. c #0000A2",
"]. c #0000A1",
"[. c #0002A5",
"{. c #0301A3",
"}. c #0900A6",
"|. c #0A01A4",
" X c #0909A5",
".X c #0000AB",
"XX c #0001A9",
"oX c #0004A9",
"OX c #0003AD",
"+X c #0201AB",
"@X c #0900AB",
"#X c #0900A9",
"$X c #0A00AB",
"%X c #0E0BAB",
"&X c #140FAA",
"*X c #1613AA",
"=X c #0002B2",
"-X c #0101B5",
";X c #0201B2",
":X c #0202BA",
">X c #0303BF",
",X c #0301BC",
"<X c #1414B4",
"1X c #1C16B6",
"2X c #1514B8",
"3X c #0300C1",
"4X c #0708C5",
"5X c #2221C4",
/* pixels */
"H.c.z.V.D.Z.L.T.P.L.L.L.Z.b.b.b.I.I.b.z.S.B.a.u.a.y.2./ w G g.N.Z.L.b.z.z.z.L.Z.u.<.` G @ ^ x.#X'.'.+X+X~.!.(.Q.Z.y.>.2.B.T.B.z.",
"H.z.a.z.b.b.Z.L.L.Z.Z.Z.b.z.z.z.b.b.z.z.z.z.a.y.u.2.>.J < i 7.z.Z.Z.z.z.z.z.L.Z.u.>./ G @ ^ x.#X[.oX-X=X[.!.(.^.S.y.>.2.c.D.z.a.",
"v.a.a.a.z.z.z.b.b.b.b.z.z.a.a.a.a.a.y.y.a.y.2.2.2.>.` D ; r 6.u.b.Z.z.a.a.z.Z.b.y.>./ w O ^ x.#X[..X:X-X~.L.P.I.B.2.` ` u.a.y.2.",
"d.a.a.a.z.z.z.z.z.z.z.z.a.a.y.y.y.y.2.2.y.2.>.` >.` / y # 3 6.i.z.b.z.a.a.a.z.z.2.` J w O Q s.}.'..X>X:X~.Z.Z.b.a.>.J / 2.2.>.` ",
"f.i.y.a.z.a.z.z.z.z.z.a.a.y.y.y.y.2.>.>.2.>.` ` ` / J w # > } u.z.z.a.a.y.y.z.a.2.` J w X Q s.}.+X-X4X>X/.Z.Z.c.y.` D J ` >./ / ",
"f.i.y.a.z.z.z.z.z.a.a.a.a.y.y.2.2.2.` ` >.>.` / ` / J w # > o.u.z.z.a.y.y.y.z.a.>./ D w X Q s.}.+X=X>X-X~.Z.b.z.2.` D D ` ` / ) ",
"f.i.a.a.z.z.z.N.z.a.a.a.a.y.y.2.2.2.` ` >.>.` ` ` / J w # 3 } u.z.z.a.y.y.y.a.a.>./ D w X Q s.}.[..X=X.XP.b.z.a.2.` D D ` ` / / ",
"d.u.a.a.z.z.z.N.a.a.a.a.y.y.2.2.2.2.>.>.>.>.` ` >.` J y @ 2 6.s.z.z.a.y.2.y.a.a.>./ D w X Q x.}.+X+X.X+XT.V.B.a.2./ D D ` ` / / ",
"v.u.y.u.a.a.a.z.z.z.a.a.y.2.2.2.2.2.>.>.2.2.>.` 2.>./ D ; t 7.s.z.a.a.y.2.2.a.y.>./ D w O ~ N.#X'.'.+X'.b.a.a.a.2.` D / 2.y.2.2.",
"f.u.y.a.a.a.a.a.z.a.u.y.y.2.2.2.2.2.>.>.2.2.>.>.3.>.` D < p 7.s.z.a.u.2.2.2.u.y.>./ D w O ^ x.$X~.~.[.~.z.a.a.a.y.>./ ` u.x.u.u.",
"f.u.y.u.u.a.a.a.a.y.y.2.2.>.>.>.>.>.` ` >.>.` ` >.` / D ; p 7.u.u.y.2.>.` >.2.2./ J y w O ~ N.+X~./.'.Q.z.y.a.y.2.` J ` u.z.a.y.",
"p.u.2.y.y.y.y.y.y.2.2.>.` ` ` ` ` ` / / ` ` / / ` / J y @ t 6.2.2.>.` ( / / >.>.J D y < X ~ z.{.~.Q.'.Q.z.y.y.y.2./ J ( u.a.y.y.",
"5.>.>.>.>.>.>.2.2.>.>.` / / / / J J D D J J D D ( J D w # 3 } ,.>.] ) J D J ` ( D i w 2 X %.z.{.Q.Q.'.Q.z.y.y.2.>./ D ) 5.u.2.2.",
"[ ` / ` ` ` ` ` ` / / J J D D D y y w w y y w w y y w ;   $ I ( J D y y w y J J w < < ;   c a.'.~.~.[.Q.z.y.2.>.` J w D ` >.` ` ",
"_ J J / / J / / J J D D y y w w w < ; ; < < ; ; w < ; # . o s D D y w < < w y y < ; ; #   c y.~.~.'.+X~.z.2.2.` / y < < J / J J ",
"<.` ` ` ` ` ` ` ` ` / / J D G w 2 3 3 t p p p p i w p 3 + 7 E H H p t 2 t i K K p p p t + *.s.|.~.'.[.~.z.y.2.` ( y < w ` >.` ` ",
"W.A.b.z.z.z.N.z.z.z.u.y.<.1.( y V m g T o.[ ] [ 9.9.9. .Y U H H E #.S h G _ e.e.6.[ ' _ Y  .d.L.'.[.~.L.z.a.2.>.` D w J S.{./._.",
"[.~.Q.P.L.L.L.L.Z.Z.N.a.2.<.] y l 6 G / 2.2.2.2.2.2.2.2.>./ D y s x l h K ` <.3.3.,.,.` ( ] y.b.'.'.P.Z.z.a.2.>.` J y ` '.3X-X;X",
"Q.P.P.L.R.A.Z.b.b.z.z.y.>.` / y ! L ` y.z.z.z.d.y.y.y.y.2.` J y F P l z ) >.2.2.>.>.>.` J / y.b.~.~.L.b.z.u.2.>.` J y ` {.3X-X;X",
"R.L.Z.A.A.n.z.z.z.a.a.2.>./ D y } 1.u.B.^.^.U.J.a.a.a.y.2.>./ D F P z z [ 2.2.2.>.>.,.` J / y.Z.Q.Q.Z.z.z.y.2.>.` J y ` {.3X-X=X",
"A.Z.b.n.n.n.z.a.a.a.y.>.` J D y >.u.S.(.{.{.L.z.a.y.y.y.2.` J D D F p U ] 2.y.u.>.,.,.( D J y.A.P.P.b.z.a.y.>.` / J y ` {.3X=X.X",
"R.Z.z.n.n.z.a.a.a.a.y.>./ J y y >.z.).{.{.{.Z.a.y.2.2.2.>.` J D y w r G ] >.>.<.` ` ( D < w >.z.Z.L.z.a.a.y.>.` / D y ` {.3X=X.X",
"R.Z.b.z.z.z.z.a.a.u.2.>./ J y y ` s.E.^.(.^.c.i.2.>.2.>.>.` J u < ; > f ) / J J J D w ; X # J y.n.Z.a.a.y.2.` / / D y ` {.3X=X.X",
"R.L.b.z.z.z.z.z.a.u.y.>./ J y y ` s.G.L.L.Z.z.2.>.>.>.>.>.` J D w w i | 0.>./ J / J y < O ; / i.n.b.a.y.y.2.` / / D y ` {.3X=X.X",
"P.L.L.Z.b.b.z.z.a.a.y.>./ J y y / 2.x.S.Z.b.a.i.>.>.y.y.y.2.` / ` ` >.d.T.P.b.N.x.s.3.( w O.a.Q.L.n.a.y.y.2.` / ( D y ` '.>X=X.X",
"Q.P.L.Z.Z.b.z.z.z.a.u.>.` J y y ( 5.s.b.Z.L.a.2.2.y.a.z.z.a.2.>.>.>.y.Z.'.'.P.L.I.x.3.( w w.b.'.P.A.z.a.y.2.` ( ( D y ` '.>X=X.X",
"Q.P.L.L.S.B.B.N.z.z.u.>.` ( D y J >.a.z.(.&X`.z.z.z.L.P.I.B.a.2./ J >.a.R.L.a.a.a.u.` y @ ^ a.Q.R.A.z.a.a.2.>.` ( D w ` '.>X=X+X",
"P.P.L.L.S.B.B.z.a.u.y.>.( J y w D ` a.b.|.1X*XL.Z.L.Q.Q.^.I.z.2.J D ` a.n.b.y.y.y.2.J w X N 2.P.Q.R.n.a.a.y.>.( ( D w / ~.:X.X+X",
"L.Z.b.b.B.c.z.z.y.y.2.` J D w < D ` u.z.^.%X`.Z.L.L.Q.Q.I.b.u.>.D D >.a.R.n.i.y.y.2.J < X N y.Q.Q.P.z.a.a.y.>.` ( D w / (.:X.X[.",
"Z.b.z.z.z.z.a.a.2.2.>./ J y < ; w J 2.a.Z.P.L.Z.b.b.Z.b.N.y.2./ G D >.z.R.A.i.y.y.2.J <   N y.~.Q.P.b.z.a.y.>.` ( D w / (.:X+X[.",
"b.z.z.a.a.a.y.y.2.>.` J D w < @ < y / y.z.b.z.J.a.a.a.a.2.>.J G y D 2.z.R.L.a.y.a.2./ w X N a.{.'.Q.Z.z.a.y.>.` ( D w / (.:X.X[.",
"z.z.a.a.y.2.>.>.>.>.` / J u < @ l t D >.u.y.2.y.4.2.>.>./ J G w < y >.z.P.Z.y.2.2.>.J w X $.a.[.'.~.P.b.a.y.>.` ( J y ` Q.=X+X+X",
"z.z.z.a.y.>.` / / ` >.>.` J w ; q 8 e y J ` ` / / J D G y y y w ; < >.z.b.z.y.>.` / J w X W a.{.[.~.~.L.a.2.>.>./ J D ` Z.+X+X+X",
"z.z.z.a.y.>./ K / ` >.>.>.( y @ Z q 4 e D J J J D y w w w w y w @ 1 >.z.n.z.2.` J J J y O W a.{.~.~.'.L.y.>.>.` / J J ` z.'.[.[.",
"z.z.b.z.y.2.` / / / >.>.` J w @ A b a u J / ` / / J J D D J J y , t 3.N.b.z.2.` / J J y O W a.{.Q.Q.Q.Z.2.` ` ` / D D / z.Q.Q.Q.",
"z.z.b.z.y.2./ J J / ` ` / D < O Z 9 a F ( >.2.>.>.>.` ` ` ` >.( 1 t 5.N.b.z.2.` / J J y O W a.{.Q.P.~.Z.y.` ` ` / J D / a.P.Q.P.",
"a.a.z.a.y.>./ J D J / J D w # X n 9 t F ` 3.u.u.2.2.>.>.>.>.2.( < p 5.N.b.n.i.>./ ( / D O Q u.{.Q.~.'.P.a.>.>.>.` / J ` z.Q.Q.P.",
"y.y.a.a.y.>./ J D J / J D w ; O S v H J >.y.u.a.y.2.>.>.>.>.2./ < p g.x.z.n.i.>./ ( / D O Q u.^.P.P.~.L.y.>.>.>.` J D / a.Z.Z.b.",
">.2.y.a.y.2.` / J / ` ` / D w ; -.W H ( >.y.u.y.y.2.>.` ` ` >.( ; p g.x.z.z.i.>./ ( ` D O Q y.I.N.z.b.a.>./ / / J y w D >.y.y.y.",
"J / ` >.>.` / J D J / / J D w ; Q R L ` 2.y.u.y.>.` / J J J / D ; s g.a.a.a.2.` / ( ` D O c 2.B.y.y.a.y.` J J J D w < w / <.<.>.",
"+ # < y y y < ; ; < w y w < ; ; ~ ..[ ,.2.2.2.>./ J D y y y G u ; p 5.d.a.y.>.` / / ` D O B 5.a.2.2.y.2./ J J J D w < i ] / / / ",
"% & t p L K y w w y J J J D y y ) ] ` >.>.>.` / D y w < < w w w : t 1.i.i.y.<.` / / ` D X M 1.2.<.>.2.2.( J J J K w 2 g _ / / / ",
"W ~  .5.f.s.y.2.2.y.z.b.b.z.a.2.4.<.2.2.2.>.` J D w 2 3 2 r i r 4 z 1.u.2.2.` / J J ( F   n ( >./ / ` ` D y D D y w ; d L J D D ",
"X.o.p.x.E.^.T.L.I.^.{.+X+X+X~.L.c.i.a.a.y.2.>.) G t d g d p L U j v } 3.>.>./ J J J ( u   m L / y y J J y w y y w < # 6 H D w w ",
"o.9.s.I.{.+X{.{.{.[.=X-X-X=X+X~.b.z.z.a.a.2.` J y w t p H K ] L 8 j } ,.` / J D J J J w   * ! _ i f K K p d p p t 3 5 0 R U f f ",
"w.0.z.T.+X;X+X{.'.'.+X=X=X.X[.~.L.b.b.z.a.y.` J y w i H J ` 2.` : 4 { ' / / K K D D J e   = R  .| | 1.1.| | [ [ _ Y U R  .9. .| ",
"O.9.d.Z.{.+X{./.L.L.Q.~.~.Q.L.Z.P.P.P.L.N.u.>.( y y H _ ,.y.z.3.; , I ' J D G G y y D e   - W q.p.c.^.T.B.x.G.E.G.x.p.s.S.T.S.b.",
"=.9.d.L.Q.~.Q.L.L.L.L.L.P.L.b.b.P.Q.P.Z.z.y.>./ y y H _ ,.u.a.,.; 4 o.,./ / J J J J J y   C ! 5.D.{.;X;X[.'.+X{.}.|.T.L.~.[.'.~.",
"T  .J.{.P.Z.Z._.Q.P.R.R.Q.Q.L.L.{.'.P.b.a.2.2./ D ; g U ` >.` K ; t 6.y.a.N.c.a.x.x.2.' u H t.f.^.+X.X+X[.[.[.'.Q.P.L.I.L.L.Z.b.",
"~  .I.+X~.L.L.R.Q.Q.Z.Z.P.P.Z.L.(.~.L.z.y.>.>./ u ; h z ( >.J i ; p 9.u.z.U.E.Z.Z.N.2.] D D r.s.(.+X+X+X[.[.'.~.P.L.Z.b.z.z.a.a.",
"&. .Z.+X(.P.L.P.'.~.Z.b.Z.Z.b.b.I.L.b.a.>.` >./ y @ 6 z ( >.J w ; d  .4.y.d.u.y.y.2./ G < < o.5.^.+X.X.X+X'.~.Q.L.Z.b.z.a.a.a.y.",
"*. .I.[.~.P.Q.~.[.~.Z.z.b.z.z.z.b.z.a.y.` / ` J w @ 8 R ' 3.J G 3 g [ >.2.2.>.>.` ` D w ; ; ! ,.L.+X+X+X{.'.Q.L.Z.z.z.a.a.y.y.y.",
"&. .U.+X'.~. X<X+X'.Z.z.z.z.a.a.a.a.y.>./ J / J w @ k ^ 1.g.[ | U Y <.2.>.>.>.` ` / y w ; 2 @.,.L.+X+X{.{.~.P.Z.z.z.a.a.y.2.2.2.",
"W  .E.+X{.|.<X5X+X'.Z.z.z.a.2.2.2.2.2.` J J J J < @ d R ,.p.>.[ _ [ y.a.y.y.2.4.>.` D i 2 p k.7.L.[.[.'.Q.P.Z.z.z.a.a.y.2.2.>.>.",
"W  .E.+X{.|.%X2X[.'.b.a.a.y.>.>.>.>.>.` J D J J w ; d L >.a.>.>.3.u.S.T.S.z.i.i.2.2./ J y D r.h.T.'.~.Q.P.Z.z.z.a.y.2.2.>.` ` ` ",
"%. .S.+X{.~.~.~.'.~.z.a.y.2.` ` >.>.>./ D D / J p < z | y.z.y.i.a.B.(.{.^.b.y.2.y.y.` ( D D 7.s.I.~.Q.P.Z.z.z.a.y.2.>.>.` ` / / ",
"%...D.{.{.~.P.P.~.P.z.a.y.2.` / >.>.>.` J J / / D < U  .a.b.a.a.B.^.+X+X^.b.a.a.y.u.2.` D J j.s.T.~.Q.L.b.z.a.y.2.>.` ` ` / / / ",
"%...D.{.^.^.L.L.P.L.z.i.y.2.` ` >.>.>.` / J ` / D w Y 9.N.T.z.c.B.T.{.'.L.z.i.y.y.y.>.` D D 8.u.S.Q.P.Z.z.a.y.2.>.` ` / / / J J ",
"$...B.(.T.S.b.b.Z.b.a.y.u.2.` ` >.2.>.` ( / ` ( D w H [ z.T.z.a.a.N.L.Z.a.2.>.>.2.>./ J y y o.5.N.P.Z.b.a.y.2.>.>.` / / / J J J ",
"W | x.T.Z.z.z.a.z.z.y.2.2.2.` ` >.2.>.` ( ( ` / J w Y [ z.T.a.y.y.y.z.a.2.>./ ` <.>.J J w < ! 6.z.L.b.z.a.y.2.>.` / / / J J J J ",
"c | z.L.z.a.y.y.a.y.>.>.2.2.>.` >.>.>.` J J / / G w R  .a.W.a.y.>.2.y.y.>./ / / >.>./ K < ; R } u.Z.z.z.a.2.>.>.` / / / / / / / ",
"Q ..z.Z.a.y.2.>.2.2.>.` 2.2.>.>.>.>.` / J J / J w < U ) y.V.a.2.>.>.2.2.>./ / / >.>./ J < < E _ u.z.z.a.y.2.>.` / / / / / / / / ",
"*...x.b.a.2.>.>.2.2.` ` >.2.2.>.>.>.` / J D J J w < W Y >.a.2.>.>.>.y.y.>.` / ` 2.y.` / y R :.( y.z.a.a.y.2.>.` ` / / / / / / / ",
"-.+.x.B.a.2.>.` >.>.` ` 2.2.2.2.>.>.` ( D D J J p g ;.X.2.a.2.>.>.>.y.y.>.` ` >.y.u.>./ L :.l.( y.z.a.y.y.2.>.` / / / / / / ` ` "
};
