/* XPM */
static char *_118012b71cd4df4eb2f1284aa5c97ea2chxAuo86ax3slYY[] = {
/* columns rows colors chars-per-pixel */
"64 64 7 1 ",
"  c #D962A3",
". c #D6549B",
"X c #E47EB9",
"o c #BF4692",
"O c #AC3382",
"+ c #9D2F77",
"@ c #E88EC1",
/* pixels */
"   ..  ...           ...  XX oooOOOOOoOOOOOOOOooooo.  XXX       ",
"  ..  .. ... .    ... .   XX ooO+OOOooooOOOOooOOooooo.  XX      ",
"    . ...   ..........    @XoOo+OOoOOooOOooOOooOOOooooo.  XX    ",
"   ...    .....  ..       X@oOO+OOOoooOOOOoooOOOOOOooO...  XXX  ",
"...     ....  ...        @@@OO++OOOOOOooooOoOoOOOooOOoooo.. XXX ",
" .   ....   ...     .   XX@@OOO++OOOOoooOOOOOOOOooooOOOOooo.  XX",
"XX ....    ..     ..   XXXXXoOOO+OOOOOOOOOOOooOOOOOoooOOOOoO.  @",
"@@X             ...   XX@@XXoOOO++OOOOOOOOOOOooOOOooOOoooOOo.. X",
"XX@@@        ...    XX@@@@@@ oO+++++OOOO+oOooOOOoooOOoooooo.. . ",
" XX@@@XX  ....    XXX@@@@XXXX OO+++OOO++OOooOOOOOooooooOo.o .   ",
"  XXX@@@@@@XXXX@@@XXXXX@@@XXX  ooO++++OooOOOooOooooOOooOOo.    .",
" . X@@@@@@XXXXXX@@@@XXXXX@@XXX  OOO++OOOooOOOOooooOOooOOoo.   ..",
".o XXX    ..oOOoooo... XXXXXXXX   oOO+++OOooOOOoO+OOOOooo.    .o",
"o.XX   .ooOOOOoOOo.oo...  XXXXXX ooooO+OOOOOOooO++OOOOO     . oo",
". X  .ooOooOOO++OOOOOooo..  X@@XX ooOooOOooOOOOOO++OOooo    ..o.",
"    ...ooOOO++++++OOooo....   @@XX   ooooooooO+++OOOoo  X  ..o..",
".. .oo+OOO+++O+OO+++OO+Ooo....  @@XX   oooooOOOOooooo XX  ..ooo.",
"o .ooOO++++OO+OO+++O++OOOOoo...  @@@XX  o  oooooo   XXX  .oooo..",
"o.oO+++++OOO++++OOOOooOOOOOoo...  XX@@@XX@XX   XXXXXXX  .oO++Ooo",
"OoOOO+++++OOOO+oOOoooOOOOOoooo.. . XX@XX@@@XXXXXXXXXX  ooO++OOOo",
"oO+++++OO+++OOOOoooOOOOoOoOOOo....   XXXXX@@XXXXXXX  o..OOO+Oooo",
"OOO+++OO+++OOOOOOoooOOoooOOOoo.o...     XXX@@@XXX ooOOoOO++OoooO",
"O+O++O++OOOOooOOOOOOOOOOoooOOOoo.o...    ..XXX@@ ooOOO+OOOOOOOOo",
"OO+++++OOOoooOOOOOOOOoOOOO++OOOoo.      ..o. @@XoOO+++OOOoOOoOOO",
"O++++OOOoooOOOOooooOOOoOO+++++ooo   .oOOoo....XXO+++OOOooOOoooOO",
"oO++++OOOoooOooOooooOOOO++OO+ooo.. .oOoOOO. . XX O++++OOooooOOOO",
"OOOO+OOOOOoooooooOOOOOOOOOOoooo.  ...oo.Ooo.  XXX OO++++OOoooOoo",
"oOO++ooOOoooooooooOOOOoOOOoo..  .oooo...oo.. XXXXX oOO+O++OOOoo.",
".O+OOOooooooooooooooooOOo...  .Ooo..oo.  .   XXXX@XX ooOOOooo...",
".oO+OOOOoo..oooooOOooooo..   .OOOoo...  ... XXX@@XXXXX  ooOOoo..",
"..OOO++OOooo..ooooOOoo...   .oooOOooo...   XX@@XX ..  XX@@X  .. ",
" .oO++OOooOoo. ..ooo..o.. X oOOooo...oo.. XX@@X  ooo...  @@@XX .",
" ..oOO++O++Ooo.  ...oo.. X .oo...oo...oo X@@XX .o..oooo.. . @XX ",
"  ...oOO++OOOoo.  .oo..  X ..oo....o....@@@@@   ....ooOo..   X@X",
"X  .  .oOOOoo........   X@ ....o.o...  XX@@X  ...  ...oOOOo.. X@",
"@X   ....oo.......    X@@@   ..oo. .  X@@@  o...  ......oOOo.. @",
"@@XX    .....     XXXX@@@XX ..oo..  @@@X .oo........  ....oOo..X",
"@X@@XX        XX@@@XXXXX@@XX  ..  X@@@ .ooo.......   .... ..o.  ",
"XXX@@@@@XXXXXX@@@@XXXXXXXX@@XX@@X@@X .oooo....  ...   .... ..o. ",
"  XX@@XXXXXX@@@@@X@@XXX     XXX@@  ..ooo....   .............    ",
" X    XX@@@@@@@X@XX@@  ..  .....ooOOoo...  ..     ...   ..  .   ",
"    ..   @@@@@@@XXXXXX  ..   .ooOOOoOoo....     ....   ....... .",
" .ooOOOoo.. XX@XX@@@XXXX    .oOOOooo......    ........   ...... ",
".ooOoOOOOOoo.  @@@@XXXXXXX .oooOoo......  ..............   ...  ",
"oOOOOO++++OOOOoo  XX@@XXXXX ..ooooo.   ...........  .....    .  ",
"ooOO+++++OO++OOOOo XX@@@XXX .oooo....   ......     ....        .",
"oO++OOOOO+++OO++OOOoXX@@@@XX .Oo...   ..   .   ......    ..    .",
"O+OooOOO+OOO+++OOOOO XXX@XXX  Oo..  ...   ..... ...    ...  X ..",
"OOooOo++OOooO++O+OOOOoXXXX@@X .Oo...  ....  ..      ... .  X  .o",
"OoOOOOO+++OoooOOO+OOOO XX@@X@X.oo....  .....    ......o.  XX ..o",
"OOOOooOO+OOOOOoOOO++OOo XXX@@@@ .o.......   ........oo.  XX   oO",
"OOoooOOOOOOOOOOOO++OOOOoXX XXX@@ .......  ........ooo. XXX   .oo",
"oooOOOOOOOooOO++OOOOOoO+ XX   XXXX ...........ooooo.  XX   .oooO",
"OoOOOOOOoooO++OooOOOooO+o@XX .  XXXX  . ....oooo..  XX@  ..o.oOO",
"OOOOOooooOO++Ooo..oooO+Oo @XX...  X@@X   .... .  @@@@@  .oooOOoO",
"OOOoo..oooOOOOOOo..oOO++O @@X . .   X@@X  .. .XX@@@  ..  .oooOoo",
"Ooooooo...oOOOOOOoo.o+O++oX@XX  ....  @@X@@@XXXXX ..o...ooOOo.oO",
"OOo..ooo....ooOoooo..Oo++o @XX     ..    X@XX   .ooo...ooOOo..oo",
"oo..  .oo.oo..oooooo.ooO++ @@X   ..  ..oo..    ...ooo....oo....o",
"o.  ..oooo......ooooooOO++ @@@ ...  ....oo......ooo... .oo....o.",
".  ..o.. ..   ....ooOOOOO+.X@  .o..oo.  . ....oo.o..  .o..  .oo.",
"   .ooo..    ...ooOOoOOO+o.X@ ..oo..ooo...  ......   ...   . .o.",
"..  ...o... ...oo ..oOooo. @X .oooooOOoooOo...   ..       ..  .o",
"....  ...  .  o...  .oO..  XX.o.ooOOOOOOOooooo...        .     ."
};
