/* XPM */
static char *_71829f34b344964bf425ef9ded31b05Q7aLJzQl5AdMdErp[] = {
/* columns rows colors chars-per-pixel */
"64 64 7 1 ",
"  c #76776F",
". c #85837A",
"X c #525A51",
"o c #4B5145",
"O c #5B625E",
"+ c #636C6D",
"@ c #454A42",
/* pixels */
"    ..........          ..........  ......      ........        ",
"  ............................................................  ",
" ..               .........                 ......          ... ",
"..                                                           .. ",
"..  XXXXXXXXXXXXXXXXXXXXXXXXXXXXXXXXXXXXXXXXXXXXXXXXXXXXXXXX .. ",
"..  XXXXXXXXXXXXXXXXXXXXXXXXXXXXXXXXXXXXXXXXXXXXXXXXXXXXXXXX  . ",
"..  XXXXXXXXXXXXXXXXXXXXXXXXXXXXXXXXXXXXXXXXXXXXXXXXXXXXXXXX  ..",
"..  XXXXooooooooooooooooXXXXXXXXooooooXXXXXXooooooooooooXXXX  ..",
"..  XXXoOO++OOOOOOOOOOOOOOOOOOO+++OOOOOOOOOOOOOOOOOOOOOOoXXX  ..",
"..  XXXoO+++++++OOOOOOOOOOOO+++++OOOOOOOOOOOOOOOOOOOOOOOoXXX  ..",
"... XXXo+++++++++++OOOOOOO+++++++++OOOOOOOOOOO+++++OOOOOoXXX  ..",
"... XXXo++++++++++++++OO++++++++++++++OOOOOO++++++++++OOoXXX  ..",
" .. XXXo++++oooo@@@@@@@@@@@@@@@@@@@@@@@@@@@@@@@oXXXX+++OoXXX  ..",
" .. XXXo++++oo@@@@@@@@@@@@@@@@@@@@@@@@@@@@@@@@@@@oXX++++oXXX  ..",
" .. XXXX++++o@@@@@@@@@@@@@@@@@@@@@@@@@@@@@@@@@@@@@oX++++oXXX ...",
" .. XXXX++++o@@@@@@@@@@@@@@@@@@@@@@@@@@@@@@@@@@@@@@X++++oXXX ...",
" .  XXXXO+++@@@@@@@@OOOOOOOOOOOOOOOOOOOOOOOO@@@@@@@o+++OXXXX .. ",
" .  XXXXO+++@@@@@@@@OOOOOOOOOOOOOOOOOOOOOOOO@@@@@@@o+++OXXXX .. ",
"..  XXXoO+++@@@@@@@@OOOOOOOOOOOOOOOOOOOOOOOO@@@@@@@@+++OXXXX .. ",
"..  XXXoOO++@@@@@@@@OOO+++OOOO+++O++++++OOOO@@@@@@@@+++OXXXX .. ",
"..  XXXoOO++@@@@@@@@OOOOo@@@@@@@@@oooooo+OOO@@@@@@@@++++oXXX .. ",
"..  XXXoOOO+@@@@@@@@OOOOo@@@@@@@@@@@oooo+OOO@@@@@@@@++++oXXX .. ",
"..  XXXoOOOO@@@@@@@@OOOOo@@@@@@@@@@@@ooo+OOO@@@@@@@@+++OoXXX .. ",
"..  XXXoOOOO@@@@@@@@OOOOoo@@@@@@@@@@@@oo+OOO@@@@@@@@O++OoXXX  . ",
"..  XXXoOOOO@@@@@@@oOOO+oo@@@@@@OOOO@@oo+OOO@@@@@@@@O++OoXXX  . ",
"..  XXXoOOOO@@@@@@@oOOO+oo@@@@@@ +OO@@@o++OOo@@@@@@@O+OOoXXX  . ",
"..  XXXXOOOO@@@@@@@oOOO+oo@@@@@@ OOO@@@o +OOoo@@@@@@OOOOoXXX  . ",
"..  XXXXOOO+@@@@@@ooOOO+ooo@@@@@ OOO@@@o +OOooo@@@@@OOOOoXXX  . ",
" .. XXXXOOO+@@@@@@ooOOO+ooo@@@@@ OOO@@@@ OOOooo@@@@@+OOOoXXX  . ",
" .. XXXXOO++@@@@@@ooOOO+ooo@@@@@ +OO@@@@ OOOoooo@@@@+OOOoXXX  . ",
" .. XXXXOO++@@@@@oooOOO+ooo@@@@@ +OO@@@@+OOOoooo@@@@+OOOoXXX  ..",
" .. XXXXOO++@@@@@oooOOOOoooo@@@@ ++O@@@@++OOooooo@@@+OOOoXXX  ..",
"... XXXoOO++@@@@@oooOOO+oooo@@@@ ++O@@@@ +OOooooo@@@+OOOXXXX  ..",
"... XXXoOO++@@@@@oooOOO+ooooo@@@ ++O@@@@ +OOooooo@@@+OOOXXXX  ..",
"... XXXoOOO+@@@@ooooOOO+oooooo@@ +OO@@@@ +OOoooooo@@+OOOXXXX  ..",
"..  XXXoOOO+@@@@ooooOOO+oooooooo OOO@@@@ +OOoooooo@@+OOOXXXX  ..",
"..  XXXXOOOO@@@@ooooOOOO+++++++ +OOO@@@@ ++Ooooooo@@OOOOXXXX  ..",
"..  XXXXOOOO@@@@ooooOOOOOOOOO+++OOOO@@@@ ++Ooooooo@@OOOOXXXX ...",
" .  XXXoOOOO@@@oooo@OOOOOOOOOOOOOOOO@@@o +OOooooooo@OOOOXXXX .. ",
"..  XXXoOOOO@@@ooo@@OOOOOOOOOOOOOOOO@@@o +OOooooooo@OOOOXXXX .. ",
" .  XXXoOOOO@@@ooo@@@@@@@@@@@@@@@@@@@@oo++OOooooooo@OOOOXXXX .. ",
" .  XXXoOOOO@@oooo@@@@@@@@@@@@@@@@@@@ooo++OOooooooo@OOOOXXXX .. ",
"..  XXXoOOOO@oooooo@@@@@@@@@@@@@@@@ooooo++OO@oooooo@+OOOoXXX  . ",
"..  XXXoOOO+oooooooo@@@@@@@@@@@@oooooooo++OO@oooooo@+OOOoXXX  . ",
"..  XXXoOO++++++OO+            +       +++OO@oooooo@+OOOXXXX  ..",
"..  XXXoO++++++OOOOOO+++++++++OOO++++++++OOO@oooooo@+OOOXXXX  ..",
" .  XXooO++++++OOOOOOO++++++OOOOOOO++++OOOOO@oooooo@+OOOoXXX  ..",
" .  XXoo++++++OOOOOOOOOOOOOOOOOOOOOOOOOOOOOO@oooooo@+OOOoXXX  ..",
" .  XXoo++++++OOoooo@@@@@@@@@@@@@@@@@@@@@@@@@@ooooo@+OOOoXXX  ..",
" .. XXoo++++++OOoooo@@@@@@@@@@@@@@@@@@@@@@@@@@ooooo@+OOOoXXX  ..",
"... Xooo++++++OOooooo@@@@@@@@@@@@@@@@@@@@@@@@@@ooooo+OOOoXXX  ..",
"... Xooo+++++OOOooooo@@@@@@@@@ooooooooooo@@@@@@@ooo +OOOoXXX  ..",
"..  Xooo+++++OOOoooooo@@O+++++++       +           +OOOOoXXX  ..",
"..  Xooo++++OOOOooooooo@OO++++++++++++++++++++++OOOOOOOOoXXX  ..",
"..  XXoo+++OOOOOooooooooOOOO++OOOOOO++++++++OOOOOOOOOOOOoXXX  . ",
"..  XXXoOOOOOOOOooooooooOOOOOOOOOOOOOOOOOOOOOOOOOOOOOOOOoXXX  . ",
" .  XXXooooooooooooXXoooooooooXXXXXXXXooooooooXXXXooooooXXXX  ..",
" .  XXXXoooooooooXXXXXXXXXXXXXXXXXXXXXXXXXXXXXXXXXXXXXXXXXXX  ..",
" .  XXXXXXooooooooXXXXXXXXXXXXXXXXXXXXXXXXXXXXXXXXXXXXXXXXXX  ..",
" .  XXXXXXXXXXXXXXXXXXXXXXXXXXXXXXXXXXXXXXXXXXXXXXXXXXXXXXXX  ..",
"...                                                           ..",
".....         ......        .....          ..........        ...",
"................................................................",
"..........        ......  ....        ..      ......  .........."
};
