/* XPM */
static char *_55374767c324645a70841c84b2802d4Q6xKSk67qbKhSAiw[] = {
/* columns rows colors chars-per-pixel */
"64 64 221 2 ",
"   c #030400",
".  c #0A0601",
"X  c #050A01",
"o  c #0B0C02",
"O  c #0D0D09",
"+  c #120E03",
"@  c #120E0A",
"#  c #130906",
"$  c #061100",
"%  c #0D1302",
"&  c #0E1901",
"*  c #0E130A",
"=  c #0E1909",
"-  c #121303",
";  c #191603",
":  c #141A04",
">  c #1B1C05",
",  c #13140B",
"<  c #19150C",
"1  c #151B0B",
"2  c #1B1C0C",
"3  c #0B0F10",
"4  c #141411",
"5  c #1B1613",
"6  c #151C12",
"7  c #1B1C13",
"8  c #1D1E19",
"9  c #211D0C",
"0  c #251F07",
"q  c #221D12",
"w  c #221F1A",
"e  c #152201",
"r  c #1C2305",
"t  c #1D2906",
"y  c #17230B",
"u  c #1C220C",
"i  c #1E2A0D",
"p  c #162113",
"a  c #1D2313",
"s  c #1E2A13",
"d  c #1D2419",
"f  c #1F3109",
"g  c #222404",
"h  c #232906",
"j  c #22230C",
"k  c #242B0B",
"l  c #2A2D0D",
"z  c #2A2806",
"x  c #302D0E",
"c  c #24310E",
"v  c #2B330E",
"b  c #31390F",
"n  c #38330D",
"m  c #232414",
"M  c #292514",
"N  c #242A14",
"B  c #2B2C15",
"V  c #24241B",
"C  c #2A261A",
"Z  c #252B1B",
"A  c #2B2C1B",
"S  c #312D15",
"D  c #312E1B",
"F  c #253313",
"G  c #2C3313",
"H  c #2D3914",
"J  c #25321A",
"K  c #2C331B",
"L  c #2E391B",
"P  c #323414",
"I  c #343B15",
"U  c #33331C",
"Y  c #39341D",
"T  c #343B1C",
"R  c #3B3C1C",
"E  c #3D3715",
"W  c #2C2D22",
"Q  c #292625",
"!  c #322E22",
"~  c #372E2F",
"^  c #263123",
"/  c #2D3323",
"(  c #2D3825",
")  c #333423",
"_  c #393624",
"`  c #343A24",
"'  c #3B3B24",
"]  c #34342A",
"[  c #3A362C",
"{  c #353B2A",
"}  c #3C3C2A",
"|  c #3D3C31",
" . c #3B3833",
".. c #433E1C",
"X. c #423A13",
"o. c #423D25",
"O. c #413E2B",
"+. c #423E32",
"@. c #443E3E",
"#. c #34431E",
"$. c #3A421D",
"%. c #3A4419",
"&. c #2F411B",
"*. c #354323",
"=. c #3C4324",
"-. c #3D422B",
";. c #3D492D",
":. c #384428",
">. c #3C4133",
",. c #3E4536",
"<. c #43431E",
"1. c #424A1E",
"2. c #434424",
"3. c #4A4524",
"4. c #444A25",
"5. c #4A4A26",
"6. c #43432C",
"7. c #4A462B",
"8. c #454B2C",
"9. c #4B4C2C",
"0. c #524C28",
"q. c #4C522D",
"w. c #46522B",
"e. c #55552E",
"r. c #434432",
"t. c #494633",
"y. c #454B33",
"u. c #4B4C33",
"i. c #464639",
"p. c #4A463A",
"a. c #44493A",
"s. c #4C4B3C",
"d. c #524E34",
"f. c #534E3E",
"g. c #465133",
"h. c #4C5233",
"j. c #4D533B",
"k. c #4E593B",
"l. c #4A5937",
"z. c #535534",
"x. c #585436",
"c. c #555B34",
"v. c #5A5D36",
"b. c #53543C",
"n. c #5A563B",
"m. c #555C3B",
"M. c #5B5B3C",
"N. c #605B3D",
"B. c #5D633D",
"V. c #61623D",
"C. c #4E4D42",
"Z. c #474841",
"A. c #534E41",
"S. c #4E5243",
"D. c #4E5B41",
"F. c #535442",
"G. c #585543",
"H. c #565A43",
"J. c #5C5B44",
"K. c #5A564C",
"L. c #5C5C4A",
"P. c #54564A",
"I. c #5D5D53",
"U. c #615D44",
"Y. c #615D4A",
"T. c #635F55",
"R. c #5D6243",
"E. c #57624A",
"W. c #5D624A",
"Q. c #5F6B46",
"!. c #5C6553",
"~. c #626344",
"^. c #6A6446",
"/. c #6B6A46",
"(. c #63634B",
"). c #69654C",
"_. c #646A4C",
"`. c #6A6C4C",
"'. c #646944",
"]. c #736C4E",
"[. c #6D714C",
"{. c #697246",
"}. c #7B734B",
"|. c #646455",
" X c #666C53",
".X c #6C6B53",
"XX c #6E6B59",
"oX c #666759",
"OX c #726F54",
"+X c #726F5B",
"@X c #6D7252",
"#X c #6B715B",
"$X c #747555",
"%X c #73735C",
"&X c #7A765D",
"*X c #747A5B",
"=X c #7A7D5C",
"-X c #797A55",
";X c #716E62",
":X c #6F7163",
">X c #767461",
",X c #757B63",
"<X c #7B7B64",
"1X c #7A7A65",
"2X c #74736A",
"3X c #817D58",
"4X c #837F66",
"5X c #7D835B",
"6X c #7A8165",
"7X c #8A845B",
"8X c #848362",
"9X c #83846C",
"0X c #8A8669",
"qX c #8B8A6E",
"wX c #878B67",
"eX c #8C8B73",
"rX c #868776",
"tX c #928F7E",
"yX c #98987B",
"uX c #8F9675",
"iX c #999981",
/* pixels */
"o > > > k j > Y U M j > > - - - u : N u :   6 / * & o o % % : N B ; + 9 m j m D j - X o > K U N J J ( ` L k k B k U ; , V 7 O   ",
"- ' b.J.).n.u.J.<X Xu.Y M M B K B F y.` J 2 a.!.a.{ V N { ` ` =.XXY.G.b.u.} _ } ` u - J W.6X Xy.` -.g.j.R._._.(.z.J.} s.;XI.[ o ",
"- U u.s.u.-.} s.|.b.` j > u B U 8.h._.8.A > r.L.s.-.Z B -.y.8.9.M.(.OX.XJ.6.B > B r : K J.#XH.` K *.:.=.h.`.$X).9.M.} 6.L.s.m X ",
"- N ` K m u m U m u - % - u B K 8.h.'.' r o K ' ) U N N ' =.R =.l 7.~._.M.9.T l 8.L r j =.j.8.K *.*.T I I 4.x.v.V.V.I k Y N : % ",
"o u ` ` N u u : % % o % 2 j N B G I 9.G r - U ` ' ' U T u.9.' I h I 2.4.=.4.h.z.M.I % & ` m.j.` ;.R I I I P 5./.wX-XR P 8.#.r $ ",
": N } ` u : : X : - % % : u Z K U G =.B g - B U } ` B T J._.z.=.k c v v G I R 8.R h % % N :.-.` ` B G 2.9.7.V.8X-X5Xv.v.B.%.e $ ",
"/ { a.{ & & a 1 a 2 - & 1 Z { -.y.' 6.U j o k B U ` B U u.J.n.h.I G G T R H G L N N N u u Z / ` K B U n..X$X$X=Xc.[.B.B.m.H t f ",
"a / a.{ % - Z m u : % % : a K ) r.) } ) M - U r.` t.6.) U ' r.F.-.G t k B j j J ` N 1 1 Z ( W a m 2 m t..X>X(.7.9.u.l c #.c c &.",
"N u a N 1 1 u 1 % % & - 1 a Z / r.W r.F.W , ! s.s.i.A , 2 C A ) N N N N j u > u / A a 1 a V 7 o 2 5 C W C < 2 M B 2 > k N i G :.",
"K a a a : : 1 1 1 % % : 2 a Z ) [ C W W +   < m q C q < q w < , 7 m A A m 1 - - - % - 5 m 7 < < o o , < < , , < < - - u s y y s ",
": - - : : % % % X X o : u > a W V 8 8 <     o   - -     o , , 5 o , 7 2 - o o o , o - < +     o % % % o + , @ o + o - 2 p 1 : u ",
"r.r.r.-.} m - % : B } ` N > : 2 7 7 V Z C m m m - - o o 5 V V W W W C 2 , 7 W [ C C C m m C _ r.s.i.| ) ] | | W < , , 7 m N K { ",
"b.H.F.H.L.y.' y.L.<X9XW.) u - o 2 1 a ) -.} y.W.r.` m 1 Z { i.K.S.i.) a q ) r.s.O.u.7.Y o.n.).(._.W.j.-.r.s.s.| < < 7 C K ) { :.",
"N U K ' F.H.(.eXrXiXeXJ.U u > o - % % u U T 8.@XR.b.=.` 6.y.j.L.F.i.) 9 0 D ' _ 7.n.x...3.^.].M.m.g.T N J ` ) ! , < C ) ` ` U K ",
"U ' B U 7.t.J.tXeX%XJ.6.U M > - - : % & k c I c.v %.8.m._.j.` K s.s.6.U U o.9.7.E 5.0...0.}.7X7X{.l.#.I T ` ' [ - 9 B U ` Y A B ",
"j U k k ' ` t.9XeXJ.` ' r.U > - i T c r H I H %.I H h k I I T 6.} 6.6.Y Y 9.M.N...3...n X.e.}.3X5XQ.w.=.=.' } r.2 m B A U U U L ",
"' o.o.' ' u.W.#Xy.y.` U ` A a m :.*.*.H t & r H T c t h G =.8.u.o.u.o.0 > 2.~.`.M.3.P g R /.-XB.{.B.c.z.R.%X Xy.- : 1 u s ` g.E.",
"6.d.Y.(.F.y.-.:.N K K / ] m , 1 i F #.#.F e t F :.I N i i k N N U t.} > 0 t.Y.b.b.9.2.R Y n.&X8X/.c.2.I U -.` 1 X % : y d ( ;.l.",
"U _ _ U m u Z / a a a V V , , Z ` #.*.L i e i L :.*.` A m u > > m } ) + - O.s._ U B Y P 0 M u.(.M.9.=.U N A W 6   X & 1 a Z J K ",
". + 2 2 2 1 a W Z d 1 6 6 o o m ;.;.:.J e & i L ` ` ` { K N 2 - m ! A + + A [ D M m D D j k U U > : > 2 o o , o   X X % * = & % ",
". . o - - - a ^ d 6 % * 4 X   % a F K s : % & u Z Z / / K m , o o @ , @ o o + < + , < < o - ; . , - 1 1 X   X X X X   X X X X X ",
"< + + + - - a / Z p X   o o o 2 : i N y $ X % : a N A A Z m 2 1   . 7 W V + o , o < q , . , q , 5     O O X X   O o X X X $ % : ",
"M M ) p.s.` m p { >.( Z A / / ) J *.-.` N N K ` ` ` } K m u N ) ! [ s.K.K.s.r.p.+.+.p.s.r.s.F.A.] , ,  .P.I.Z.W 6 2 1 % % : m J ",
"t.o.' r.r.K u u { E.#X#X#XW.y.` G h.`.@X X_.Q.W.k.H.j.` > % u ` p.f.K.L.T.|.|.T.s.! ] f.K.G.f.r.W   X Z.2XrXI./ A A N u > i G ' ",
"J.+X).U B U > : ` l.g.*.g.g.-.=.h.m.B.m.'.5XuXyX@X@XR.R : : k > (.<XL.(.U j D O.> 9 M D _ ' O.6., * X ] S.rX,XF.` ` r l T z.=.I ",
"(.4XeXY.' G : : *._._.=.=.8.I h I I I H =.B.=XwX$X`.b.l % : l k ' J.J.n.' D g o ; ; > 2 j M B A 2 o X W F.<X,XH.: T h.*X@XR.R 4.",
"U 7. XM.T G h h H h.8.k r l I I v R <.4.9.m.m.h.[.R.h.k % e T R 7.`.iXqX X6.g ; > > - - - ; 2 j a   o m j.W.(.u.9.n.~.8X$XM.5.).",
"Y M O.6.U ` G i L G F l h r I z.~.x.2.I I 2.9.u.T I G :   & L ` t.t.eXqX&XY o ; M j ; + + - ; 2 Z   o 2 -.' 6.P P I 2.$X=X`.7.x.",
") < A U A { A u N u N ` L j j U U Y ' ' ' U j - : u j : X : -.j.XXt.XX%XrX)._ U A m 2 - + + < < W o - 2 K u k > P ' R (.&X%X6.U ",
"C q ] W V Z 6 2 & 1 a a m ` } A } U j ; - - 1 2 2 a Z a % Z S.|.u.O.r._ p.s._ q M m q < < 5 5 7 V o , 6 m - : - j M - > 0 _ q 9 ",
"~  .@.Q 7 4   % 6 p d 1 1 | P.r.M C C C 7 -     o o , o   * ^ [ q [ A m + < q @ < 5 5 5 5 5 5 5 4 X o 7 , - % o   ; + 9 C +.[  .",
"# 5 @     ,   , 7 o , 1 o , V 5 < < , + .     X     X X     o X - 7   7 . . o .   . o @ @ @ O X X X X 6   - X   o -   . + q # < ",
"# V Q < o o o - m 9 M < ) ! [ C Z q , + o . . O . O + - - o - A A X , , o , o o o o   X - 1 Z p a % 1 a : : : X o N o 9 W < w . ",
"o r.;XoXr.B M D ' 6.6.t.O.} ` ] ` 6.r.W @   @ Q V w < 9 _ ' R 6.{ p d a a Z a m 2 %   1 { ;.E.!.H. X,X,XW.R.(.R.@X*Xy.u.G.K.K.5 ",
"  ! T.Y.} B ' } d.J.J.$Xd.t.Y 6.u.b.F.} -   7 | P.C.r.} b.M.h.9./ Z Z K -.y.` -.j.) : K y.y.D.D. X6X*Xm.h.m.`.5XR.'.=.U ' K.|.- ",
"+ < _ O.} t.d.2.7.d.M.$XM.9.2.n.R.j.} N - , Z | I.:XXXH.z.9.2.4.T L ( =._.%XH.W.b.} u U g.g.g.*.L h.8.T 8.h.$.I h G l j > } J.> ",
"2 9 U b..X&X~.R 4.$.c.V.[.c.V.@X*Xm.T > - : m ) r.W.(.j.8.$.I $.#.#.:.w.*XqX@X@Xb.8.k B ;.l.l.L r H c t =.h.R l g k I I k _ u.j ",
". m ' G.9X9X~.9.B.5.v.V.=X'.-X5X=X_.8.B - % > A / :.' T R H k k H H T =.M.@X~.(.W.m.G j U y.k.T h l e % h =.q.h.I k G T Y ' U - ",
"o ] _ }  X Xn.~.[.v.c.v.V.c.v.B.z.h.y.) u % 1 Z Z Z a u N t e t k t H G G 9.n.J.t.=.> > L y.W.j.i r u N L 6.u.8.T K K K ' O.A > ",
"o [ C 2 6.} j ' ~.M.R 2.l P g h j N K K N 2 p Z a d a u y & & J F k =.L r -.J.+Xr.` > m ` -.S.j.{ 1 % : u ` y.} A ) ` m C ) m 2 ",
"o 4 d V m j B U ' Y B B B j : % % m a m a - 1 V 6 1 6 a p = y ^ 1 N K N > 2 D r.} ` - a / A { p 1 1 1 , 6 Z Z Z 2 Z Z , < W ] C ",
"O .   o - 2 2 > j B K A u - o -   o o 1 , o * * % % 6 d p = p ^ a 1 % - 2 q q < q q m 2 - , 1 a * * % X * 4 8 7 7 7 5 , - , , + ",
"4 O X X o , 2 u m B ) K > X   o 2 . , 2 - o o     X = d d p d ^ % X     o + + + < . < o X ,   % X o X X X O O X O O O < , + o o ",
"] ] W C m C ` r.u.-.` / m - o o 9   ; m 2 m A 7 - & 1 Z ^ ^ ^ ( d 7 < 5 V ] | | A.r.p.O.r.r.A A 1 7 p 8 8 7 , X   < V ) [ } +.r.",
"P.j.r.-.-.y.j.m.(.b.6.) m - 2 C >Xd.(.(.f.(.).L.` A s Z { :.{ ( | d o < | K.L.A.XX1X%X%X Xb.m.j.` { { / W Z 7 , o ) C.F.J.XX<X<X",
"(.u.' =.h.m.b.8.m.b.u.` > o C s.0XM.^.x.3.x.9.x.h.' N N J ` K Z V ,     < ] +.t.t.n.6.M.R.q.m.=.:.{ K a > 1 , % X / s.u.b.`.$X@X",
"q.=.I T 4.4.=.T =.=.=.U : % K L.^...3.E <.V.q.~.q.$.G i N L T K 1 1 , o o ; U 7.2.R P 4.c.e.1.v H G i : - - - o   > G U R 9.q.9.",
"H T =.$.I v I $.R G B B u : / b.`.<...z ..c.P 5.9.4.I G I =.8.y.Z 6 - o - 9 S Y x.9.V.9.<.<.g z k B G B A A m > o - > P R <.<.3.",
"z P R o.=.=.-.6.` } s.-.> - ` b.=Xz.P R =.l k I 2.=.8.8.I h G T { V - - m 6.n.~.M.M.z.7.R x x P R R B B p.f._ 9 . ; B U U Y ..5.",
"7.2._ U U } r.p.) } s.r.> o u U 8.=.6.z.u.R T 8.=.T ' ' k > j N W m 2 a U -.6.6.`.).n.o.S Y o.o.S Y M M } p.O.C 7 C D A M D o.x.",
"} _ ) _ O.p.s.C.) [ s.i.Z : u m : r K ' ` K ` r.-.` ` ` N m N N 7 < , 2 m A B j O.7.6.D M M M 9 j K ) A ) [ W < * 7 V Z m j B U ",
"m q q q q q 7 7 V 7 W ) N u m j > > : > u B K ` ` W / / m V V a V 7 , , 2 2 2 > M A U U D D C C C / ) A C W V O X , d V m a 2 2 ",
", < < @ o o < 7 ,   o - - 2 u > : : - - : u m m m 5 7 7 O * , X 7 4 , o o o - - ; o o - ; ; q W V 1 = X   X = X X X     X X % & ",
"@ 5 V w , o . o V , - 1 - > k j - u A U A m a a V 7 7 ,   O O   , < 2 , - - - 2 - o + 9 q q M ! Z = p Q * X *   X X o X X X % * ",
"I.oX;XT.Z.W ,   [ ) { ` N k I ' 8.6.u.j.j.-.) ) / Q V 4   4 Q 8 W ] } [ ! U } u.r.n.Y.Y.|.;X+X|.>.^ a.!.a.] >.,.] ,.Z.,./ Z / >.",
"s.s.p.+.! q + . { } u.u.G l $.8.@Xh.I R 6.' B m W C 8 *   4 ~ ] ) } r.' D Y u.(.n.OX+XJ.(.rXtX<X[ 2 { K.>.{ |.6XI.oXoXC./ W s.XX",
"D B m M A -     : j U n.$.I b c.`.z.T H T ' U B m m 6 , , , < , U ' ' R ' 7.x.x.~.`.7.9.n.<XL.6.m ; O.O.b.XXb.).J.J.O.D ' D A 6.",
"M m j M B > o - u U 4.v.q.q.%.1.q.4.$.T R I B j j m 2 o o 2 a 7 > g S 2.M.~.v.9.9./.~.M.~. Xu.Y 0 + Y o.d.Y.3.U.8XeXY.g 0 Y Y B ",
"U U S D A > . o r =.n.4.$.b v r 4.q.q.q.8.R G k -.r.U : % m A m 0 l o.x.^./.z.R R ~.$X~.J.u.' K ;   S 7.~.OX^.0XqXyX&X7.7.Y.d.B ",
"6.6.' ' ' k o   6.W.*X4.G : h r h G R 2.8.8.u.u.F.H.r.> - Z ] A U o.d.n.n.0.2.R P h.~.2.6.A K A ; o j Y 9.M.M.-X0X3X].^.^.n.U ; ",
"' ' ) ' t._ < - F.L.#Xy.K o r N r u u j N K ) ' -.y.) - o A | [ M D o.7.7.3.2.2.P Y ` > A 2 C Z - + > > B u.M.).~.7.7.(.&X>X%X>X",
"B A C D +.[ q , | ] { ) A - - : A m > - - - 1 2 C W V o o a ] ) m 9 9 D 7.t.6.' B B a - C m V V o , 2 > B u.(.).6.P B ` [ r.r.` ",
"< q 7 7 V 7 @ O w 7 4 V d 7 % , , , , , 1 6 V V 5 V 7 o X , 7 7 q ; # q ! ! A M m m , 5 8 V 4 7 4 p 6 2 1 u N N u % u N m W / p ",
". , + . o . . @   4 O 4   X   o , 4 7 7 , o X X o , , o     O , # . . + + . + < , <   , X 4   3 * 1 1 m a % % % u X $ 1 X X , * "
};
