/* XPM */
static char *c05e8b7d84fb4ab7f76b7aec06cc919dsAX5KJ3lSuFGr99g[] = {
/* columns rows colors chars-per-pixel */
"64 64 142 2 ",
"   c #150400",
".  c #180700",
"X  c #1D0C00",
"o  c #210E00",
"O  c #251301",
"+  c #291602",
"@  c #271903",
"#  c #2C1A05",
"$  c #261509",
"%  c #281609",
"&  c #271A0A",
"*  c #2D1C0B",
"=  c #321D05",
"-  c #311E0B",
";  c #2E1C10",
":  c #311E11",
">  c #2E200B",
",  c #342107",
"<  c #382507",
"1  c #34230D",
"2  c #39250D",
"3  c #3A290E",
"4  c #2F2212",
"5  c #352413",
"6  c #392613",
"7  c #372815",
"8  c #3C2B15",
"9  c #372718",
"0  c #382619",
"q  c #3D2C1A",
"w  c #3F301D",
"e  c #3E2C20",
"r  c #412C0D",
"t  c #422D15",
"y  c #412E1A",
"u  c #423216",
"i  c #493212",
"p  c #44321C",
"a  c #4A351D",
"s  c #47381A",
"d  c #4B3A1D",
"f  c #523B1C",
"g  c #402E20",
"h  c #402E22",
"j  c #412F21",
"k  c #413020",
"l  c #413121",
"z  c #423121",
"x  c #433220",
"c  c #423320",
"v  c #423022",
"b  c #433123",
"n  c #433323",
"m  c #443321",
"M  c #453420",
"N  c #443520",
"B  c #463521",
"V  c #453422",
"C  c #443522",
"Z  c #463523",
"A  c #453623",
"S  c #473622",
"D  c #423024",
"F  c #433125",
"G  c #453327",
"H  c #453325",
"J  c #463525",
"K  c #453525",
"L  c #453421",
"P  c #483622",
"I  c #483723",
"U  c #493723",
"Y  c #493621",
"T  c #473821",
"R  c #493A23",
"E  c #4C3820",
"W  c #4F3922",
"Q  c #4C3C23",
"!  c #4A3925",
"~  c #483926",
"^  c #4A3927",
"/  c #4B3A26",
"(  c #4C3B27",
")  c #4B3C25",
"_  c #4D3D24",
"`  c #4E3E25",
"'  c #4D3E27",
"]  c #4C3A23",
"[  c #473A29",
"{  c #4B3A28",
"}  c #4A3B28",
"|  c #4A3A2A",
" . c #4C3B29",
".. c #4B3C29",
"X. c #4E3D29",
"o. c #4E3F28",
"O. c #4C3D2A",
"+. c #4F3E2A",
"@. c #4D3C2A",
"#. c #503820",
"$. c #503A23",
"%. c #503C24",
"&. c #533F27",
"*. c #523C25",
"=. c #523E29",
"-. c #4F401F",
";. c #544224",
":. c #5A4525",
">. c #514128",
",. c #524229",
"<. c #53432A",
"1. c #544028",
"2. c #564028",
"3. c #564029",
"4. c #574129",
"5. c #57412A",
"6. c #56422A",
"7. c #53422E",
"8. c #57422D",
"9. c #55472D",
"0. c #56462D",
"q. c #57472E",
"w. c #54422B",
"e. c #58422B",
"r. c #5B432B",
"t. c #58432E",
"y. c #5A442C",
"u. c #5B452E",
"i. c #5C442C",
"p. c #5C462E",
"a. c #59442C",
"s. c #56482E",
"d. c #5C4A2E",
"f. c #564533",
"g. c #5B4731",
"h. c #594834",
"j. c #5C4A32",
"k. c #584638",
"l. c #604B2E",
"z. c #604830",
"x. c #624D34",
"c. c #645132",
/* pixels */
"p 8 8 8 1 @ + # = # = t a f a p a a a a a a a p 6 X X @ O X O & * * @ * 5 - O @ O @ * 5 q e q q q q q q q 9 * O 5 q w 8 5 q p B ",
"> @ @ # @ X X o t 6 3 6 t t t t t t t t t t t 8 1 O - ~ { J [ o.m p 8 7 q * X X X o $ @ % % $ $ $ $ $ * * * $ o X X X X X O @ @ ",
"o.) ) ' Q p t t # # = # # = = < = = = = = = = - - O 5  ...B c c B B q 0 q 5 O @ : : * * * ; ; ; : * * ; 5 9 9 5 c 5 1 8 c B Y o.",
"R T T T p 8 1 = t W e.u.u.p.z.z.i.r.e.&.2.2.8.t.Y 8 q { B w c w y p 0 q c 8 * 5 g g q 9 q e F G G g q q q F G J q * @ 5 q 0 p o.",
"0.s.0.0.<.Q u 2 6 a *.*.a a a a u t y t t p p p Y 8 q Y B B ..{ ~ ] p p B 8 * 5 q q 9 5 5 0 g F F e 9 5 9 0 q c J 5 5 q q q B h.",
"' ,.,.,.,.' u , a 2.2.a p a $.W y p p p p p p p 7 - 8 B B B ~ B Y ~ p y c 5 * 5 q q 9 5 5 5 9 q q 9 5 5 5 0 q y q 5 * 1 1 5 p 7.",
">.0.q.0.0.>.u , p ' =.a y E ] Y p a Y W W E a p u 8 p o.] ] o.B q p 8 8 y 5 * 5 c p g q q 0 0 0 g g g q q g m m B q 1 1 8 Y 8.j.",
"Q >.>.Q R p , X p *.8.W a Y y 2 y p E ] $.W a p 8 1 8 p y p ] p R ~ p u p 5 * 5 q q q q q q 0 9 m G G c g y y y q 5 + O 1 R ,.=.",
"2 3 2 , , = O X u 6 y ] Y B B 8 5 q ~ o.] B p u 8 6 2 8 a E Y u u p T p 6 # * 6 5 5 8 q q 0 5 * m g q q y I P y 6 + + # O # t a ",
"+ < p d *.2.0.2.y # + # - 1 7 1 * - 5 8 y B R ' X O + = - - - = 8 8 u w 6 , 5 8 m m p q 0 0 q q y y y y t q 6 - + O # - + # # + ",
"r ;.c.x.a.*.W d 8 + X O @ * 5 @ @ @ * * - - * # + 6 a W a t p a 6 < # # @ O O O - 5 8 q 5 * * @ - 5 7 q 8 6 8 8 =.=.j.g.u.g.2.6 ",
"r f l.d.*.d a p ,.u p o.o.O.O.c q w m I B 8 + X 8 Y 2.u.&.W $.2.>.p 6 3 3 1 1 1 @ @ # * * + O o o o o o o o - t p E $.a a u.*., ",
"i f ;.;.;.;.*.W 1 # 8 c q 0 0 5 5 q J O.=.B 1 O Y ] *.&.$.W $.*.0.a 8 u R ' ' ' ' 8 O X O 1 q y P P P y 8 6 y t.E $.=.W W z.u.2 ",
":.:.:.;.*.;.W p y 6 p J q 0 c q * 5 5 q y q 5 - t.2.*.*.&.&.e.2.Q u 3 8 u p p p 7.q @ O 1 y B m 6 6 t t : + = 8 t p $.W W e.a + ",
"f f f f *.:.2.W y 1 7 q 5 5 7 4 9 0 q q q q q y ] E a a a $.$.*.0.a u u p p u u u 6 - 1 q p 8 - - - 8 y 8 - 2 a a W t.u.2.u.W = ",
";.:.:.f d d a 8 Y 8 q c q 0 5 & & 4 0 q 0 8 8 8 Y W $.$.$.&.e.u.a 8 6 8 u u u p p 8 5 5 8 q 8 6 8 2 2 6 - + 1 a a p $.*.W *.W 2 ",
";.:.:.;.d Q Q a 8 q q q 5 * : 9 * > 1 8 q 1 1 B y E *.*.$.*.p.x.,.p 8 8 p u y y y y 8 1 1 8 y y 6 6 6 8 6 1 6 8 y Y Y u ' 0.Y # ",
"s d -.d s a R a q 8 q q 9 * * * * 5 5 8 q 1 * y y p a a a W *.;.t.R y u p u q 8 y y 6 1 1 8 y 8 6 6 6 8 6 1 6 p 8 R R p ) 7.p # ",
"s d ;.d d Q ' R 8 5 5 q q 9 5 5 * * 1 5 8 * @ 8 W Y a a $.&.&.*.] u 8 u Y Y p p p p 8 1 6 8 y 8 u w w w 6 , 1 8 8 B ' R R ' u # ",
"3 u s s p p p u q 5 - 5 q 9 5 5 * 5 5 5 8 5 1 p p y t p a a a W Y y 8 p ] ] R Y p u 8 1 6 8 8 8 u 8 w 8 6 , 1 6 q B R R ) ' 8 @ ",
", 8 s d Q Q R p q 1 @ * ; * * + * * @ O # @ + 1 y t p a a a W 2.*.p u Y ' ] Y p p y 6 , 1 8 8 6 6 6 8 8 6 1 6 u p R R R ' ' 8 O ",
"@ < 8 u p p p u 1 @ O * 5 5 5 5 * 5 * O @ + O # 6 2 3 t t t t W a 8 8 p ' =.=.=.Y p 6 1 6 u u 8 8 8 8 8 6 , 1 6 u p p B ) ) 8 # ",
"@ # , # # # # @ * + * 5 y c c J w ~ m p Y B y p - + + , < = = 2 6 , # 6 u p Y R y 8 , # 1 8 8 6 8 6 6 1 # O O # # 1 8 8 8 8 6 1 ",
">.>.R 8 5 5 6 5 - * 5 q c q 9 0 * 0 q q Y B y y =.y 6 a &.W a W y 1 # # , , - # = + o X O # # O O O @ @ @ O @ , . O 1 1 * # , 6 ",
"~ p p p q 8 q B I q 5 9 0 0 7 0 5 5 0 y p p p p ] y 6 t $.=.e.d.8.g.j.j.g.=.R p 1 O @ 6 8 u p 8 p R ' ' ,.j.q.,.1 p ,.f.f.f.0.,.",
"B p q 8 8 5 8 y c 8 5 5 0 7 5 9 5 5 0 y p p p p a 8 3 t W &.&.2.$.=.=.' R p p p Y 6 6 u u p Y u p p p p p R p u , 8 B R B R R R ",
"B p q q 5 5 5 q q 5 : 5 9 5 5 5 5 5 q y p p p p p t 6 p &.=.&.&.$.] Y p 8 8 u B o.8 8 u y u p y u p p u u p u 6 1 8 u u 8 u p p ",
"J p q 0 5 5 5 0 q 5 5 5 0 5 5 5 5 9 q y p p p p y 6 6 a &.=.*.$.$.R p 8 6 6 8 p p 5 6 u y u p 8 8 8 w 8 u p p 8 1 8 u q 8 u p p ",
"g 0 9 5 : * * 5 q 5 5 0 q 7 5 7 5 9 0 q y p p p t 2 2 p W $.a a a p y 6 1 1 1 6 u 6 8 W Y Y Y y 1 1 6 6 8 u q 6 @ 5 q u q u p u ",
"g q 9 9 5 * 5 0 5 5 5 0 q 7 5 7 5 5 8 q q q y y y 6 2 t a W a a p p p t 6 6 6 6 u 6 p =.~ p p 8 6 8 8 6 8 q 8 5 @ 5 u p p p p u ",
"q 9 5 5 : * : 5 * * - 5 8 5 5 7 5 5 7 8 8 q q q t 1 = 2 t p p a y p p u y 8 y u p 6 p ] p u u 6 u p p u p p u 8 @ 1 u u u u u 8 ",
": * % % $ O @ * O O * 5 5 5 5 8 5 5 5 7 8 8 q q 1 + O + = < 3 6 6 8 8 8 8 8 y p p 8 p W p p p u u p p p p R p q O , 6 5 1 1 1 1 ",
"O O X X X X X . * @ $ @ * : : : * @ @ O @ * # O O 6 6 a p 2 3 = + @ # # # , 2 6 = 6 p R R p a R p p Y R R Y p p . X O O O O O @ ",
"B p y y p p c y $ X . . . . .   @ @ O O O @ + O 1 y 6 p y t *.*.$.Y y 6 - O X   o # 8 a a p u 8 Y Y B p y 6 1 , - 6 p R R Y R ] ",
"q 8 0 q q q 0 7 @ @ % 5 e | f.k.{ ~ B c B ] ] B 2 t , 6 t t e.d.8.=.' =.>.R 8 , @ , t p p u 8 8 1 1 1 , , - # # @ 1 u R R Y p p ",
"y q q q q 8 5 - @ @ $ * 5 q h G 0 8 5 - 1 8 6 1 , t 2 t t t $.*.2.=.=.=.*.a 6 , 1 2 2 1 , , < 3 8 8 y u p p Y R - 6 u R R p u y ",
"~ Y B B B p q 7 q q q q 0 0 q q c p q 7 8 p y 8 2 y 6 a p t *.$.2.2.,.*.a 8 1 , x.j.g.0.2.2.0.j.] ] ] R R R R R 6 8 p R ] R Y Y ",
"p q q q q q 8 5 * * 5 5 5 9 q q 0 0 7 5 6 q 8 1 6 p 6 p p t e.e.2.0.j.u.,.W R R R W ' ' ' R a p p u u u y y 8 8 1 1 8 y p Y R R ",
"p p q 8 q q q 8 5 0 q g q 0 9 9 q p y q p p q 5 1 y 2 t y t 2.2.g.j.u.2.Q u 6 , R W ] ' ] R p p p p Y W ~ ~ Y p 6 8 y p R ' ' ' ",
"~ B u 8 8 8 8 5 @ * 5 q q 0 q q q q q q p p 8 1 1 y t W E p *.$.2.>.*.,.0.*.p 6 ,.' Y p u u u u p p Y R Y p u 8 6 6 8 p Y Y p p ",
"p u 8 5 8 8 5 @ . * 0 y q 0 7 5 q B q 5 y Y q 1 # 1 t p y p W 2.d d Q ;.0.Q u 3 2.8.] p B ~ p 8 6 Y R Y ' R p Y 1 6 8 y u p Y R ",
". X O O O O o X X O O O * 5 5 * 5 q 5 1 8 q 1 - o O + # = , 6 u d s a a a a u 8 y p p u p B m q 8 p p p ' ] u p O O @ # - # + O ",
"1 p ,.,.' ' 7.0.~ q # o O @ @ X X O O O # O X O g.u.2.W t < = + X X O O O X X X 6 y B p m m G m 8 y 8 y ] Y 8 8 , 1 1 6 8 1 @ o ",
"# 8 a p 8 8 u p ] y - @ 1 p m q c B J =.8.p 8 ] $.=.a.d.u.$.6 = u d 0.d.0.d p t - - - * - - - * O + O @ 1 # O + =.=.=.8.0.=.p 6 ",
"8 p R p 8 u u u u 8 1 1 6 p B p 5 9 8 B ~ 5 - p 6 t a 2.g.e.a 3 d :.l.c.q.*.a p 8 1 + + * : * * 8 p p R ] u 8 R ,.=.*.,.0.8.] p ",
"u p a p u u p u p u 8 5 1 5 5 * 5 8 8 c Y 5 1 p =.=.2.2.e.*.a t ;.;.:.;.d p p p 8.p 5 7 y m g y - 6 y p p 1 , p R Y p Y ' =.] R ",
"8 p R p u u u u 1 1 1 1 5 y p 0 5 8 5 8 p 6 1 q p p a W $.$.W a ;.-.d d a a p u ] 8 - 5 7 7 5 7 5 8 y p Y 6 1 p Y R R ] ' ' *.' ",
"3 p ' R u 8 8 8 B u 5 - 5 8 8 1 5 8 5 5 q 8 5 8 p R *.2.2.*.a t d d d Q *.Q p 6 Y q 5 7 7 : : 5 - , 1 8 p 1 # 8 Y R ' =.' ] ] W ",
"8 p Y Y p u 8 6 y 6 1 1 8 u y 8 5 6 6 8 u 8 1 8 8 u Y R ] ' Y 8 R <.,.' ,.R p ~ p 8 1 5 5 5 : 5 1 5 1 5 q 8 5 y Y =.*.a W u.u.W ",
"6 p Y p p p u 8 y 6 1 1 6 8 y t 6 y 8 8 p 8 1 8 u B R R ~ R p 6 T ,.,.' ,.R p Y ~ q 7 5 5 5 : 5 > 5 5 8 p 8 5 y a $.W a E =.$.t ",
"6 p ' ' Y p p p a y 6 1 1 6 8 8 6 8 6 8 u 6 # 1 p B R R R R u 6 u ) ' R ' B q p B 0 5 5 5 5 * * O * - 5 8 1 * 6 a ] W W *.e.W t ",
", 8 ] W p p u 8 ' p 1 , 1 8 6 6 6 8 6 8 u 6 > 6 u p R R R ~ p 8 6 p p R ' B q p p 5 * * 5 7 5 5 * 5 5 7 q 5 1 y t y p a $.&.p 2 ",
"- y =.8.7.=.' Y R 6 # # 6 u y 6 8 u 8 u p 8 1 8 p B R R ' ' R u 6 p p p ' R p ~ J 5 % - q c q 5 @ * * * 1 @ @ 5 p Y W *.2.=.a 6 ",
"O , y p Y ] Y p 8 # O + 6 u u 8 5 8 6 8 u 6 , 6 p B R B R R p 8 1 u u u R p y B m 5 * * 5 0 5 5 @ @ O O # O o @ 8 t t p y t 2 = ",
"O + @ # - 1 , @ - @ O + - 1 6 1 , 1 , 1 6 > O # 1 6 6 6 6 8 6 , , 6 1 , 6 1 - 6 5 * * * * * * 5 q q 7 q B q - 1 + + = = = # # = ",
"8.=.Y u p Y p 8 # # # + + + @ # , 1 , , 1 # O @ O O O @ # , * @ @ > @ O O O X O @ * 5 - + O - g 8 q 7 q ~ q # @ y p W *.$.$.e.z.",
"p ] 8.8.' Y Y R *.@ # 6 p 8.R ] ' ' ) ' ,.0.0.0.u 1 8 ,.,.,.,.' 7.7.o.R p 8 1 O q B o.O.O.@.m 0 1 1 q p p 8 # p E W *.=.=.=.&.&.",
"Y ] =.] Y p Y R ' - 6 8 y Y y p p u q u p p p p p 1 6 B R R ' ' B T p q 8 6 * O 5 q q q q q 0 5 5 1 y y p 8 @ p a Y W ] *.*.$.$.",
"Y Y p u 8 8 u Y Y 1 p p 8 y 6 u 8 8 8 8 w u q q u , , 8 8 u R R q 8 8 6 6 5 * O 5 0 q 0 9 0 5 5 5 5 p q p 8 @ q p a W W $.$.$.$.",
"u u 8 6 1 1 6 8 8 , Y R u p q p 8 6 6 8 w u q 8 8 # # 8 8 w T R u u 8 6 6 6 * O 8 q c q q q 0 5 5 5 p q p 8 + 6 a Y W *.*.*.*.$.",
"8 8 q 8 6 6 6 6 6 - Y ] Y ] p p 1 1 1 6 8 8 8 8 6 @ # 8 q u R T p p u 8 6 5 # O 5 q c y q q 0 5 9 9 p q y 8 + 5 p a W W $.$.$.$.",
"y u u u y 8 6 6 6 - Y ] Y =.p 8 6 6 6 8 u u q 8 1 @ # q u u p u p p p 8 6 5 @ X - 8 c c q q 0 9 5 8 p 8 q q + 1 y p a a a E a a ",
"u u u y q 8 6 6 1 # Y R p ] u 8 p p p p T B u q 1 @ # 8 8 8 8 8 q u u u q 8 * O * 8 y q 0 q q q 5 8 p 7 q q @ 1 y y p a a a a a ",
"u y 8 8 8 6 1 1 # @ a Y u R p p ) R R R R p u 8 6 @ # 6 1 1 6 1 8 u u p p p 5 @ * 5 0 5 5 5 0 q 5 8 p 5 q q @ 1 y p a a W W a a "
};
