/* XPM */
static char *_8fd53a4782543338d7d64b8dd2e0a5apNDnH7GUdoqjdIZE[] = {
/* columns rows colors chars-per-pixel */
"64 64 2 1 ",
"  c black",
". c white",
/* pixels */
"                                                                ",
"                                                                ",
"                                                                ",
"                                                                ",
"                                                                ",
"                                                                ",
"                                                                ",
"                                                                ",
"                                                                ",
"                                                                ",
"                                                                ",
"                                                                ",
"              ........                  ...........             ",
"               .      ..................          .             ",
"               .                                 .              ",
"                .                                .              ",
"                .                               .               ",
"                .                               .               ",
"                .                               .               ",
"                .         ....                  .               ",
"                .       ..    .....            .                ",
"                .       .          ..          .                ",
"                .      .            .          .                ",
"                .       .                      .                ",
"                .       ..                     .                ",
"                .         .                    .                ",
"                .          ..                  .                ",
"                .            ..                .                ",
"                .              ..              .                ",
"                .               .              .                ",
"                .                .             .                ",
"                .                .             .                ",
"               .                  .            .                ",
"               .                 .             .                ",
"               .       .    .....              .                ",
"               .       .....                   .                ",
"               .                               .                ",
"               .                               .                ",
"              .                                 .               ",
"              .                                 .               ",
"              .                                 .               ",
"              .                                  .              ",
"             .                                   .              ",
"             .                                   .              ",
"            .   ..........................        .             ",
"           .....                          .........             ",
"           ..                                    ...            ",
"          .                                        ..           ",
"         .                                                      ",
"                                                                ",
"                                                                ",
"                                                                ",
"                                                                ",
"                                                                ",
"                                                                ",
"                                                                ",
"                                                                ",
"                                                                ",
"                                                                ",
"                                                                ",
"                                                                ",
"                                                                ",
"                                                                ",
"                                                                "
};
