/* XPM */
static char *b66c53e45fa741649f8778571086ee22rOHDP4ZryNBk7Fmo[] = {
/* columns rows colors chars-per-pixel */
"32 32 109 2 ",
"   c #0E0701",
".  c #150D06",
"X  c #171008",
"o  c #1A120B",
"O  c #1F1811",
"+  c #241C14",
"@  c #281F16",
"#  c #251E18",
"$  c #281F18",
"%  c #272019",
"&  c #2B231C",
"*  c #30271E",
"=  c #2D2620",
"-  c #2F2821",
";  c #312721",
":  c #342C25",
">  c #382F26",
",  c #352E28",
"<  c #392F28",
"1  c #393027",
"2  c #373029",
"3  c #3B332C",
"4  c #3D3630",
"5  c #3F3831",
"6  c #40362E",
"7  c #41382F",
"8  c #403730",
"9  c #433B34",
"0  c #483F36",
"q  c #453E38",
"w  c #483F38",
"e  c #47403A",
"r  c #4B433C",
"t  c #50473E",
"y  c #51483F",
"u  c #4E4741",
"i  c #4F4841",
"p  c #504740",
"a  c #554E46",
"s  c #524A43",
"d  c #584F46",
"f  c #534E48",
"g  c #554E48",
"h  c #564F49",
"j  c #594F49",
"k  c #595047",
"l  c #575048",
"z  c #57504A",
"x  c #56514B",
"c  c #575048",
"v  c #595049",
"b  c #585149",
"n  c #58514B",
"m  c #5A514A",
"M  c #59524A",
"N  c #5B524B",
"B  c #5A534B",
"V  c #5C534A",
"C  c #59524C",
"Z  c #5A534D",
"A  c #5C534C",
"S  c #5B544C",
"D  c #5B544E",
"F  c #5D544D",
"G  c #5C554D",
"H  c #5F564D",
"J  c #5E554E",
"K  c #5D564E",
"L  c #5E574F",
"P  c #5B534C",
"I  c #5E5751",
"U  c #5F5850",
"Y  c #5F5852",
"T  c #60574E",
"R  c #625950",
"E  c #635A51",
"W  c #625B53",
"Q  c #625B55",
"!  c #645B54",
"~  c #665B55",
"^  c #635C56",
"/  c #645D55",
"(  c #645D57",
")  c #655E56",
"_  c #655D55",
"`  c #685D57",
"'  c #665F59",
"]  c #676058",
"[  c #66615B",
"{  c #6C635C",
"}  c #6B645C",
"|  c #6C655F",
" . c #6D645D",
".. c #6D6660",
"X. c #6E6761",
"o. c #736A61",
"O. c #706963",
"+. c #756C65",
"@. c #766D66",
"#. c #756C64",
"$. c #78716B",
"%. c #7C736C",
"&. c #7C756F",
"*. c #7B726B",
"=. c #7E7771",
"-. c #837C74",
";. c #8F8880",
":. c #928B85",
">. c #938882",
/* pixels */
"R H s v > 8 s p r 8 q u o.X.r 9 9 3 8 > s s / Y 3 3 s : e Z 3 Z ",
"8 V s 8 3 v r & O e , 9 i - s s D 8 - H 9 8 r r *.s 2 Z i r r l ",
"> * 3 r 0 r r +.e r ^ i 3 q g 3 0 8 l e 9 0 i 9 + & 3 o 3 4 & 9 ",
"R k e a v 0 A r r e - 0 , v q q c s H 8 3 9 i r 8 4 : r s l - r ",
"> r 0 { w 0 3 H 9 Z e : 2 u r , v e 5 e 9 & a > e 0 =. .8 , / 0 ",
"o.6 r 8 1 e ! 0 i 9 X.3 e i 9 4 8 s > i e e s 5 q u + u I - 2 3 ",
"> y w 8 r 3 s 0 s I s , 3 v 3 9 1 0 4 & r 3 3 r s g 9 9 : r 3 8 ",
"s 6 p : + r : 1 9 : 3 3 3 3 4 9 & r 9 8 a s i 3 Z 2 s g s r D r ",
"T 9 e s 8 0 s 0 8 v q 3 3 3 0 s & e Y 0 D 0 1 9 Z 4 a 2 a r 4 0 ",
"k 1 0 8 H r + v r 5 8   q s r 0 + 1 0 8 -.H 0 D 9 r e r : r : e ",
"> t r 0 e 3 & w 9 - Q 3 1 s % 9 r r 3 : 1 1 0 s s : 3 q e 9 4 & ",
"s > A e e X + 9 . s 3 1 ^ - & i R H 0 s v s r l r : q q e 2 u l ",
"s 6 & & 3 r 8 q 1 : - 0 Z I s q r 0 r e r 3 D v q r r q u r 4 9 ",
"y e 0 8 0 q $ & e 3 9 s r 3 s 9 3 > s a 0 e s + e 4 5 9 e r Y s ",
"w r X 8 8 r s 8 r r O 9 4 3 4 , 0 e 8 r 3 0 0 H 9 9 & i 3 5 g 2 ",
"s k r w 0 3 3 3 1 e Y u u q r 9 2 : : : > e 1 2 e &.8 r q 3 l r ",
"9 9 8 8 s 3 r 0 8 e 8 > a > 0 e o s o r 4 = e 5 4 2 q e 3 : 9 i ",
"w 9 & 1 3 + : s & 0 o s r r r + 9 5 ] 9 4 5 x 9 3 , - 5 q % e f ",
"; ! 8 0 w r 8 & s 3 3 1 r 2 s r 4 8 q 5 9 & 3 r 9 q q r 9 $ : e ",
"& r r 3 s & 1 s 0 3 0 ] : X s r r l 3 r % 4 - i 3 2 i q 2 :.3 3 ",
"` p 3 o 8 9 < 8 s + t > r s 8 & : : 5 2 9 - 4 r e r X.9 2 g s e ",
": r e 0 8 1 0 e w > : 8 & l i 3 3 4 ' 3 3 5 4 e e r & r r 0 D 9 ",
"+ 6 3 r 1 : r 1 : 3 : , s & e 1 1 1 e ;.9 a 0 s X 2 r s r r e s ",
"w r 9 +.. p 0 %.e 0 9 8 r 8 - 0 4 % 8 e 8 3 1 / 1 s r s 8 1 1 } ",
"; 9 t 9 + r w e 3 1 3 2 e X 5 % 8 - 3 s 1 r s s 0 & 5 9 > a l H ",
"6 6 9 8 & X & H e > e : % 9 8 3 9 8 8 3 > ^ 0 / > s + 8 + 1 9 a ",
"8 6 1 r & 3 > 1 1 & + 1 > 3 1 v 3 8 : , s 8 r & 8 3 0 v 3 6 r 1 ",
">.s : & 1 > : 8 & $ 8 > r > 2 2 3 r 8 8 0 r 8 o.3 : *.r 9  .6 w ",
"j < j 3 * 1 s 0 3 1 1 e & 5 s e 8 / r j w 8 3 p r 8 a & 8 v ! 1 ",
"r 3 e 6 8 0 8 8 > 3 3 8 1 : e - 0 & 9 r s X 1 e 8 p 8 s : 9 8 a ",
"s r s 3 8 & 0 r 0 1 > 8 s 0 > i > 3 8 > d t 6 1 r 8 7 +.0 3 r e ",
"3 j 1 > 8 ; ; < 1 s : & 3 3 8 + @ 3 1 a 8 w * > r y w a e r r r "
};
