/* XPM */
static char *e0ead5385c5e4a4683cf6f54b5c70f4e6EMLT9T1vWFfXQCU[] = {
/* columns rows colors chars-per-pixel */
"64 64 162 2 ",
"   c #733401",
".  c #7D3600",
"X  c #773802",
"o  c #7C3C02",
"O  c #7E3F0B",
"+  c #7F3F11",
"@  c #7E4104",
"#  c #7F410A",
"$  c #823D02",
"%  c #803F09",
"&  c #883F0C",
"*  c #844303",
"=  c #8A4503",
"-  c #864906",
";  c #8D4A04",
":  c #84440B",
">  c #8A460B",
",  c #86490B",
"<  c #8C4A0D",
"1  c #914501",
"2  c #914C05",
"3  c #984E07",
"4  c #924D0B",
"5  c #984F0B",
"6  c #8E510E",
"7  c #945106",
"8  c #9B5205",
"9  c #95520D",
"0  c #9A540D",
"q  c #97580D",
"w  c #9D5A0D",
"e  c #844511",
"r  c #8A4711",
"t  c #874812",
"y  c #8C4C13",
"u  c #874719",
"i  c #8C4E19",
"p  c #924E12",
"a  c #914E18",
"s  c #8E5113",
"d  c #8F511A",
"f  c #945214",
"g  c #9A5513",
"h  c #965916",
"j  c #9D5A14",
"k  c #94541A",
"l  c #9A561A",
"z  c #96591C",
"x  c #9D5A1B",
"c  c #A0560E",
"v  c #A15D0E",
"b  c #A15712",
"n  c #A35C14",
"m  c #A95D13",
"M  c #A35D1B",
"N  c #A85D1A",
"B  c #9E6017",
"V  c #A56214",
"C  c #AB6515",
"Z  c #A96816",
"A  c #A7641D",
"S  c #A5611C",
"D  c #AB611A",
"F  c #A8621A",
"G  c #AF6318",
"H  c #AD601A",
"J  c #AC621B",
"K  c #A86419",
"L  c #AA6518",
"P  c #A96618",
"I  c #AB6618",
"U  c #AA6718",
"Y  c #AB6619",
"T  c #AA6719",
"R  c #AA651A",
"E  c #AB661B",
"W  c #AD6519",
"Q  c #AC6719",
"!  c #AE6719",
"~  c #AE661A",
"^  c #A8621C",
"/  c #A9631D",
"(  c #AD631C",
")  c #AF611F",
"_  c #AF621E",
"`  c #AE631F",
"'  c #A9651D",
"]  c #AB651D",
"[  c #AB651F",
"{  c #AC671C",
"}  c #AA641B",
"|  c #AB6819",
" . c #AB681A",
".. c #AF6818",
"X. c #AC691A",
"o. c #AD681B",
"O. c #AE691B",
"+. c #AC681D",
"@. c #AD691E",
"#. c #AE691E",
"$. c #AF6A1F",
"%. c #AD691D",
"&. c #B06311",
"*. c #B06217",
"=. c #B06718",
"-. c #B0671A",
";. c #B0661B",
":. c #B2651E",
">. c #B06919",
",. c #B0691B",
"<. c #B06B1D",
"1. c #B06B1E",
"2. c #965622",
"3. c #9A5720",
"4. c #9A5722",
"5. c #9D5A25",
"6. c #9E5B24",
"7. c #9F5C27",
"8. c #9C5B22",
"9. c #9D5E29",
"0. c #A55F21",
"q. c #A35D23",
"w. c #9E6121",
"e. c #A66120",
"r. c #A76221",
"t. c #A56224",
"y. c #A96421",
"u. c #AB6520",
"i. c #AB6720",
"p. c #A96423",
"a. c #AA6522",
"s. c #AB6422",
"d. c #AF6421",
"f. c #AE6520",
"g. c #AD6721",
"h. c #AB6523",
"j. c #A56827",
"k. c #AC6821",
"l. c #AE6820",
"z. c #AF6921",
"x. c #AD6825",
"c. c #AF6A27",
"v. c #AD6923",
"b. c #A56429",
"n. c #AA662A",
"m. c #A7692B",
"M. c #AC692C",
"N. c #B06220",
"B. c #B06523",
"V. c #B06B20",
"C. c #B06A22",
"Z. c #B06C23",
"A. c #B46F21",
"S. c #B16B25",
"D. c #B06C25",
"F. c #B06B28",
"G. c #B16C29",
"H. c #B36D2A",
"J. c #B86F2B",
"K. c #B5702D",
"L. c #A66731",
"P. c #A76930",
/* pixels */
"$ 9 F E 1.A.V 2 7 L o.w j C./ 2 G.5 F L w V V w r.l > > M u.] C.] 2 E w | #.n = f k 6.: < - B V C &.*.n _ n 1 J ;.=.V G Q 8 = 4 ",
"= g ] { #.1.v ; 8 Q o.w n C./ 2 F.4 V V w L V 0 S g * > M u.F ] ] 2 F 0 | #.n = y a 6.< < * j V C &.*.n _ n 1 F ;.;.V G Q 8 = 4 ",
"; n l.{ { o.v ; w o.o.w n C./ 2 c.4 n V w L V 0 S l > < 0.u.M F u.5 F 0 E #.M ; < p 5.y < * w Z C &.G n :.N 1 J ;.,.C o.#.0 = 4 ",
"= n l.E E o.V 7 V 1.o.w n l.F 2 c.; n V w L V 0 r.x < p M S M u.u.2 F 9 E #.F < : y 4.k < * q Z C &.G n N.N 1 J Q ,.G G #.j < 4 ",
"; n C.E V E V w L 1.E w n l.F 2 u.; j V w | V 0 S M p < f g j D.u.4 M 7 V #.F 4 : y k 4.< - 7 V C &.*.n B.N 1 _ V ,.L E #.n 2 4 ",
"2 F S.F n V V w E o.V w n g.F 5 u.= 0 V v o.V 9 M x < * 4 4 0 l.u.2 n 7 V #.A 9 : y a 5.< < ; n C &.*.n N.N 2 g.V Q L L #.M 4 < ",
"= M l.F w V L V Q Q n 0 n g.M 5 r.= 0 n v o.V 9 r.x > * p g 0 F u.2 n 2 V #.] 9 < y y q.< < * q C C J n B.N 2 g.m E V V l.M 4 > ",
"* g u.n j V #.o.E E n 8 n ] M 5 r.* 0 n v o.V 9 F.M > > x M j n b.4 n 2 V #.] g < y > q.y < * q G C J n B.M 2 g.n E V V l.F 4 > ",
"5 j F F F V F V E ; = 0 F u.M 2 x.= ; V V V V 2 r.n.4 > g M S = r.g j = E { F t.> p t p t.h * 4 m =.J J.M M g F n ; ; n c.S f p ",
"g g / / / F w V V ; = g S r.M 4 x.; 2 V V V V 7 M n.< > p M F = 0.g M = V F V S < p > y q.k - ; w V n J.N 0.g / * * 2 V l.M p > ",
"M 2 / u.] F 2 V n ; ; j S r.M 5 x.; 2 V n V V 9 M t.< > 4 g S 4 M p M = j n F S f p : y 6.x < - 8 m n J.M 0.g M $ 2 V +.u.S h < ",
"M = M ] ] M = F w 2 5 n M r.M 5 x.2 7 V v V V 0 M t.p > < g ] g l r 0.; 0 n A F x p : r 3.8.f - 8 m n J.M M 5 g 2 F $.V n r.8.p ",
"M = g S / j ; ] 9 2 0 M M r.M 5 x.4 9 V w v V 0 x n.p > < g l.j p > 0.; 7 n l.M M p : t k 6.k - 7 v n K.M M 5 g 9 V E 0 q e.8.< ",
"M 2 = n M 5 0 ] 2 2 n F M S M 2 x.4 0 V w w V w l t.f > < g l.M p & t.4 2 n v.j r.p t t y 8.8.- ; 8 j G.M 0.l M = w n 0 j t.x : ",
"0.M $ 0 g = n n 2 9 M ] M M M 2 x.9 0 L w w V j 5 0.f < > 9 l.S l > n.4 ; j #.4 t.f t t r 3.q.< ; 8 w F.M t.x r.= q V j x t.x : ",
"r.x.. 5 g $ g.n 2 8 F { M M M > x.9 w L w w F j 2 M f < = 9 u.M 0.> n.5 ; j +.= b.f p y : l t.< ; w j G.M M g / ; j n 0 q x z < ",
"g M 9 . $ x u.j 2 0 n V M M p < B.8 m m M ; B S * t.x * < j j F M p M.9 2 g S 5 u.x 4 = 4 x M l = j f K.M g b J 1 w n 0 < x e.< ",
"j n 9 $ > M r.g ; w V V n x l 4 :.8 m m M 2 B e.@ w.x * ; j n F M 5 G.9 4 g S 9 S M 9 = ; j M j > x f K.M w b N 1 c M 0 < x 8., ",
"j g 5 > p q.M 9 2 V o.n g x l p :.8 m m M 4 M S * x x - ; j n F j 4 G.g 4 9 M g j M g ; ; g M x < x h K.M w w n 3 n N g < x x < ",
"j 0 5 p l q.j 4 7 V E w g M l 4 :.8 n n M 2 M S * h x < ; j F F g 2 K.j 4 4 M j g M j 2 = g M M < x g K.M g 0 n 0 n F g < l x < ",
"j 9 9 l q.M g 4 w V V w j r.l > :.8 m n M 2 M S * f x 9 ; g S F g ; K.M 5 4 M j 4 M M 4 = g M M < x f K.M g 0 g b n F g 2 g x < ",
"n 9 f M t.l 5 9 V n w w M r.l * g.8 m n M 2 M S - 4 x h ; g S M 9 = G.M 9 4 M M ; M M 4 = g S M 4 x f K.M 0 5 0 n n M g 2 f x < ",
"F 9 g r.t.p 4 j V w 8 n / M p > g.8 n n M 2 M S < 4 x j = f r.x g = F.M g 9 M j ; M M 2 ; j S M 4 M f K.M 0 5 5 M n M g 2 9 x 9 ",
"F 9 g n.0.4 2 M V 0 8 V / g > > g.8 n n M 4 M S 4 < x x = 9 r.x g * c.M g 9 M j = j M 2 ; M r.j 5 M g K.M g 4 4 M M M g 2 0 n 9 ",
"F 9 4 l l > 4 M n 7 w V g 9 p 4 n 9 n / g 0 n n 9 ; M x < 4 f M l = u.M M 5 g M * S g ; g M S 4 5 M g G.g g g = f S M 9 9 M S 0 ",
"F g 9 g p < 5 n 0 8 v V 0 9 k p c.g 0 j 0 0 M S 9 ; M x < y y x j = u.M M 9 g M * S 9 ; g M S 2 5 n g G.j j l = 9 M M 9 9 M M g ",
"n j g 4 < 4 f g 7 w L V 5 f l y n.5 2 g 0 g N N 0 = M x < < < h M ; x.M M 9 g M = M 5 2 j M M ; 9 n g H.j x l < < j j 9 9 M M g ",
"j M g 2 > p l 0 7 n E w 4 l l > p * < n n n N n 0 2 M x < r : y M 4 c.M M g j M ; M 2 4 M M j = 8 n 0 G.M M x < < f f 4 g M M g ",
"j M x 4 < f g 0 w V V 0 4 M l $ > $ 5 M n g b n g 2 M x < < : < M 4 c.j M g j j 4 j ; 5 M j g = 0 n 0 G.M M x < < < 4 4 g M M c ",
"g n M f p l j g n V n 7 4 M l $ l p l 0.g 0 n N b 2 M x < r : < x 2 c.j M j j g 4 j ; 9 M g 9 ; w n 5 c.j x x < < < < 4 j M n c ",
"g j x l l l j j n w w 7 2 g 8.> t.l l M g 0 n N n 2 M l < r : y l ; x.j M j x g 4 j 2 g M 5 4 2 w n 2 u.l x x < < < < 9 j F n c ",
"g g x M M l g n j w j 8 ; g q.k t.f f M M b n b M 4 x l < y , y f = b.j M x j 9 2 j 4 j M 2 4 2 b n 2 S f x x y < < < f n F n c ",
"M g g j g 9 0 x j x 0 ; 4 l l y t.p x l M 2 n w 0 g j l p : > a t > M.l n S j ; w 7 7 x M f < p M 0 = b.f x q.y y < < 4 g j n j ",
"x f 9 g g q 0 x j x q ; 4 l l p t.4 x g x 2 x j 0 0 j x f > > a t > M.x x x w ; w 7 q x x y > p M 9 = n.f x q.p y < p f j j j w ",
"x f 4 9 g g j j n j 9 < f x x p t.4 x g x 2 x j j 0 g x l p r y t : M.x x j q ; w q j x h < < f x 4 = c.f l q.p > < 4 g j n j w ",
"M j 9 9 g j j j x j 9 4 l q.l < r.4 x g x ; x j j g g x x f y > r : M.x x j q ; q q x j f > < k x 2 * c.l l q.f > < f j x n j w ",
"M x g 0 j j j q q 0 q l x q.l < r.4 x g j ; j j j g f x x f y > r : M.x x q q ; j j x j < : y k x < * M.l l q.l < p l j x x j j ",
"j x x j j j j q 0 0 g j x x p < r.4 j g j ; j g j 9 f l x f y > r : M.x x 9 7 ; j x x g < > y k x < * M.l f x l p f g j j j j j ",
"< g x j q q j q j g j j h f y < S 4 j g j ; j g l f f l l p < < y : M.x x 9 7 ; j x j 9 < < f l x < * H.f p x l f l x j j g j j ",
"* 9 x j q q j q x j j h f < < p M 4 j g j ; j l l f f l f 4 < p < * M.8.x 4 4 ; j j l 4 < y f l x < * H.f 4 l l l x j j g 0 g j ",
"f 6 6 h j q h B g B j - , z k * S 7 q M 9 ; f x l x * < $ x p p < : b.x x - = g j h f < > < k 8.x < . M.M f f f l j j 9 9 j j g ",
"h < < h x j q q j x g < < k f * S 7 q n 9 < f x f l < > > x l f < : b.x x < = g x h f < > < k x x < . M.x f 9 9 l j l g q j j j ",
"h s < f x h f 6 x h y y k k t : S 7 9 n f < f x f f f > f x M l < : b.x x > > h l h p < < y k x 8.< $ M.x f 9 9 l j j q q j j l ",
"z f y < y 6 s f w.s , k z i : : S 7 9 x f < f x p p l > x l S g y > b.l x > > k l h < < < y k x x p $ n.x f 9 7 g j j q q j x l ",
"z z k : @ * y z x , : z 5.t O : S 2 7 j 9 < f l p p x > l p M f p > b.l x : > l k f y < < p h l l p $ n.x f 9 4 g j j 9 9 l x l ",
"k 2.k : o o y z k : e 2.5.u + e S 2 2 j 9 4 f l p k l < 4 4 j 9 f < b.k l : > l k p y > < f h l l p $ b.l g 0 7 0 j 0 9 9 l l l ",
"e d 2.i : : : t r : t 2.2.u e t S 2 2 j f 4 f l y l l f = f g l h < b.k k : > l k p < > < f h k k a $ t.l j j 9 q 0 q 7 4 f l f ",
"o i z k y r : o : : y 2.2.t e t r.2 2 l f p f l < x f l * l g x h < t.h k - > x k y < < < f h k a y $ t.l j j 9 9 0 9 4 4 f h f ",
"* < h x h < * o * - f x y > y y t.< < l f p f l < f k h p < f h x < t.f f * < s x < < * < z s h s : : b.f x f l 9 g f - * < k k ",
"* < g j g < - * - < k k > < f < t.< < k f p f l < p k k p < p h x - t.f 6 - 6 h h < < * < h 6 z s : : b.k x f l 4 l l < < f k f ",
"- 4 g j h 9 < < > p l f : p k : b.y < k f < f k < p k f p < p h h , j.f < * s z h , < - < h 6 f i : : t.k x f l 4 l x f f h k s ",
"4 9 g h h g f f < h x < * k l * b.y < k f < f h > y h f p < p h f , m.s , @ < h f , s , < f < f i # : t.k l p l 4 l l f f z k y ",
"9 f f f h h h h f k l < : l 3.* n.p < k f < f f - < f f p < p f y , m.s , * y k s : s < y k y k i : : t.f l p l 4 g f < y f k s ",
"f 9 9 f h h h h h f f < < x l $ n.p < k f < f f * < f f f < p f < : P.f i , k k i : d r i k r k i # : t.f l p l 4 f f < < f f y ",
"f 9 4 p f h f f l < < y p l k $ n.p < k f < f f * < f h f y p f r : L.d t : t : t : d y i k t d i # : t.f l p l 4 f f < < f f , ",
"9 4 < p f h f p l > > p k l k * n.p < k f < f f * < f h f y p f y t L.i e O o   t : k i i k t d t # : q.f l p l 4 f f < s k f , ",
"x - * y l f p f p < > p l a : . M.f y l f < f f $ < h f p p f f k e 9.5.o   O L.d t i e i k : k i : : 8.p x f f 4 9 p < < f f s ",
"x < : < f k f f y < < p k p : . M.f y l f < f f * < f f f y y f y i 9.t X t i 2.k t i e i k : k i : : 3.p x f g 4 9 p < < f f s ",
"k f < - < k l f > < y p a y : o M.f < k f < f f < > < h f < < h r # i # X i i y k t i : i k : k i : : 3.y l p f 4 4 p < < s f s ",
"f h < * : f l f : r p p y r : % M.f < k p < f f p : < h h < < h k   : t : : : k k t i : y d : k d : : 3.y l p f 4 4 4 < < s f s ",
"f f y * * < f y : y a y y y t % M.f < h p < p f f > : f f < > f x # k z r : : 3.k r i : i s # d d : % x y k p f 2 4 4 < < s s s ",
"p f y : * : > > : y a y y i y : M.p < h p < p f f < : < p < < y y s b.k o r y s k r y : i y @ s d : O z < k p p 2 4 4 < < s s y ",
"f p p p < * $ : : p k y y a i : M.p < h p < p f f < > > < p < < < y b.f o : : r k r y : y y o y d : O z < f p p < 4 4 < < s s y ",
"f p f k y o . : > a k y i k a % M.p < f p < p f f p > * < f p : k : 8.6., X X k k r y : y y o y d : % z < f p p < 4 4 < < s s y "
};
