/* XPM */
static char *redcirclegrey_16px1735932865[] = {
/* columns rows colors chars-per-pixel */
"16 16 2 1 ",
"  c #808080",
". c red",
/* pixels */
"                ",
"                ",
"     .......    ",
"    .........   ",
"   ...........  ",
"  ............  ",
"  ............. ",
"  ............. ",
"  ............. ",
"  ............. ",
"  ............. ",
"  ............  ",
"   ..........   ",
"    ........    ",
"      .....     ",
"                "
};
