/* XPM */
static char *wallbw_16px1735932865[] = {
/* columns rows colors chars-per-pixel */
"16 16 2 1 ",
"  c white",
". c black",
/* pixels */
"       .        ",
"  . . ..   . . .",
" . . . .  . . . ",
"................",
"   .       .    ",
". ..  . . ..  . ",
" . . . . . . . .",
"................",
"       .        ",
"  . . ..   . . .",
" . . . .  . . . ",
"................",
"   .       .    ",
". ..  . . ..  . ",
" . . . . . . . .",
"................"
};
